<svg xmlns="http://www.w3.org/2000/svg" xmlns:xlink="http://www.w3.org/1999/xlink" viewBox="0 0 94 36"><defs><style>.a{fill:#2b6997;}.b{fill:#fff;}</style><symbol id="a" viewBox="0 0 70.17 23.39"><rect class="a" width="70.18" height="23.39" rx="11.7"/><path class="b" d="M18,13.66a2.76,2.76,0,0,1-2.69,1.81c-1.75,0-2.77-1.55-2.77-3.92s1.15-4.18,2.77-4.18A2.67,2.67,0,0,1,17.74,9l-.94.27a1.65,1.65,0,0,0-1.52-1.15c-1.11,0-1.82,1.33-1.82,3.39s.66,3.12,1.82,3.12A1.77,1.77,0,0,0,17,13.53Z"/><path class="b" d="M23.13,13.12H20.62l-.6,2.2h-.85l2-7.79h1.19l2.2,7.79h-.85Zm-.2-.7-1-3.57h-.13l-1,3.57Z"/><path class="b" d="M26.26,15.32V7.53h.85v7.09h3.63v.7Z"/><path class="b" d="M32.86,15.32V7.53h.85v7.09h3.62v.7Z"/><path class="b" d="M43.87,15.32H39.53v-.7h1.73V8.22H39.79V7.53H43.5v.69H42.11v6.4h1.7v0A2.39,2.39,0,0,0,43.87,15.32Z"/><path class="b" d="M49.86,15.32,46.72,9.41v5.91h-.85V7.53h.87l3.12,5.75V7.53h.84v7.79Z"/><path class="b" d="M54.88,15.47c-1.77,0-2.77-1.41-2.77-3.92s1.2-4.18,3.07-4.18a3.13,3.13,0,0,1,2.26,1.14l-.71.58c-.6-.71-1-.93-1.55-.93-1.37,0-2.12,1.2-2.12,3.39,0,2,.63,3.12,1.82,3.12s1.87-.83,1.9-2.15H55v-.7h2.6v.7A2.65,2.65,0,0,1,54.88,15.47Z"/></symbol></defs><use width="70.18" height="23.39" transform="translate(11.91 6.3)" xlink:href="#a"/></svg>