<svg xmlns="http://www.w3.org/2000/svg" xmlns:xlink="http://www.w3.org/1999/xlink" viewBox="0 0 460 100"><defs><style>.a{fill:#2b6997;}.b{fill:#fff;}.c{fill:#763092;}.d{fill:#2b6a96;}.e,.f,.g{fill:none;stroke-miterlimit:10;stroke-width:0.65px;}.e{stroke:#2b6997;}.f{stroke:#763092;}.g{stroke:#888;}</style><symbol id="a" viewBox="0 0 70.17 23.39"><rect class="a" width="70.18" height="23.39" rx="11.7"/><path class="b" d="M18,13.66a2.76,2.76,0,0,1-2.69,1.81c-1.75,0-2.77-1.55-2.77-3.92s1.15-4.18,2.77-4.18A2.67,2.67,0,0,1,17.74,9l-.94.27a1.65,1.65,0,0,0-1.52-1.15c-1.11,0-1.82,1.33-1.82,3.39s.66,3.12,1.82,3.12A1.77,1.77,0,0,0,17,13.53Z"/><path class="b" d="M23.13,13.12H20.62l-.6,2.2h-.85l2-7.79h1.19l2.2,7.79h-.85Zm-.2-.7-1-3.57h-.13l-1,3.57Z"/><path class="b" d="M26.26,15.32V7.53h.85v7.09h3.63v.7Z"/><path class="b" d="M32.86,15.32V7.53h.85v7.09h3.62v.7Z"/><path class="b" d="M43.87,15.32H39.53v-.7h1.73V8.22H39.79V7.53H43.5v.69H42.11v6.4h1.7v0A2.39,2.39,0,0,0,43.87,15.32Z"/><path class="b" d="M49.86,15.32,46.72,9.41v5.91h-.85V7.53h.87l3.12,5.75V7.53h.84v7.79Z"/><path class="b" d="M54.88,15.47c-1.77,0-2.77-1.41-2.77-3.92s1.2-4.18,3.07-4.18a3.13,3.13,0,0,1,2.26,1.14l-.71.58c-.6-.71-1-.93-1.55-.93-1.37,0-2.12,1.2-2.12,3.39,0,2,.63,3.12,1.82,3.12s1.87-.83,1.9-2.15H55v-.7h2.6v.7A2.65,2.65,0,0,1,54.88,15.47Z"/></symbol><symbol id="b" viewBox="0 0 70.83 24.04"><path class="d" d="M17.17,15.65c0-.53-1-2-1.66-3.14l-.55,0h-.9v3.12h-.85V7.85h2.35A2.27,2.27,0,0,1,18,10.23a2,2,0,0,1-1.58,2.12c.67,1.19,1.74,2.74,1.74,3.3Zm-1.71-4c1.15,0,1.74-.49,1.74-1.45A1.44,1.44,0,0,0,15.56,8.7h-1.5v3Z"/><path class="d" d="M20.86,14.8h3.5v.85H20V7.85h4.35V8.7h-3.5v2.42h2.9V12h-2.9Z"/><path class="d" d="M29.26,15.76V17.1h-.9V15.77c-1.48-.23-2.3-1.64-2.3-4,0-2.61,1-4,2.74-4s2.76,1.52,2.76,4.05C31.56,14.09,30.72,15.52,29.26,15.76Zm1.33-4c0-2.38-.56-3.34-1.79-3.33s-1.74,1-1.74,3.33c0,2,.43,3,1.3,3.2V13h.9v1.94C30.16,14.71,30.59,13.74,30.59,11.74Z"/><path class="d" d="M37.05,13.56V7.85h.85v5.71a2.16,2.16,0,0,1-2.46,2.24c-1.66,0-2.52-.9-2.52-2.24V7.85h.85v5.71a1.5,1.5,0,0,0,1.67,1.54A1.46,1.46,0,0,0,37.05,13.56Z"/><path class="d" d="M40.66,14.8h3.5v.85H39.81V7.85h4.35V8.7h-3.5v2.42h2.9V12h-2.9Z"/><path class="d" d="M51.08,13.53c0,1.53-1.07,2.27-2.72,2.27a2.61,2.61,0,0,1-2.23-1l.59-.55a2,2,0,0,0,1.74.78c1.1,0,1.79-.4,1.81-1.43s-.54-1.31-1.51-1.48c-1.55-.27-2.58-1.08-2.58-2.32A2.16,2.16,0,0,1,48.54,7.7a2.68,2.68,0,0,1,2.25,1l-.56.53a1.86,1.86,0,0,0-1.58-.77C47.59,8.48,47,9,47,9.77s.62,1.28,1.88,1.53C50.36,11.59,51.08,12.15,51.08,13.53Z"/><path class="d" d="M57.75,7.85v.7H55.6v7.1h-.85V8.55H52.67v-.7Z"/><rect class="e" x="0.32" y="0.32" width="70.18" height="23.39"/></symbol><symbol id="c" viewBox="0 0 70.17 23.39"><rect class="c" width="70.18" height="23.39" rx="11.7"/><path class="b" d="M17.16,9.11a36.54,36.54,0,0,1-1.4,3.45H14.9c-.3-.71-1-2.13-1.48-3.45v6.21h-.85V7.53h.87a43.13,43.13,0,0,0,1.85,4.07c.4-.76,1.28-2.72,1.78-4.07H18v7.79h-.84Z"/><path class="b" d="M23.13,13.12H20.62l-.6,2.2h-.85l2-7.79h1.19l2.19,7.79h-.84Zm-.2-.7-1-3.57h-.13l-1,3.57Z"/><path class="b" d="M26.14,15.32V7.53h2.35A2.26,2.26,0,0,1,30.93,9.9c0,1.68-1.2,2.3-3,2.3H27v3.12Zm.85-7v3h1.4c1.15,0,1.74-.49,1.74-1.45a1.44,1.44,0,0,0-1.64-1.53Z"/><path class="b" d="M32.74,15.32V7.53h2.35A2.26,2.26,0,0,1,37.53,9.9c0,1.68-1.2,2.3-3,2.3h-.9v3.12Zm.85-7v3H35c1.15,0,1.73-.49,1.73-1.45a1.43,1.43,0,0,0-1.63-1.53Z"/><path class="b" d="M43.86,15.32H39.53v-.7h1.73V8.22H39.79V7.53h3.7v.69H42.11v6.4H43.8v0A2.39,2.39,0,0,0,43.86,15.32Z"/><path class="b" d="M49.85,15.32,46.72,9.41v5.91h-.85V7.53h.87l3.11,5.75V7.53h.85v7.79Z"/><path class="b" d="M54.88,15.47c-1.77,0-2.77-1.41-2.77-3.92s1.2-4.18,3.07-4.18a3.16,3.16,0,0,1,2.26,1.14l-.71.58c-.61-.71-1-.93-1.55-.93-1.37,0-2.12,1.2-2.12,3.39,0,2,.63,3.12,1.82,3.12s1.87-.83,1.9-2.15H55v-.7h2.6v.7A2.65,2.65,0,0,1,54.88,15.47Z"/></symbol></defs><use width="70.18" height="23.39" transform="translate(35.97 14.37)" xlink:href="#a"/><line class="e" x1="111.99" y1="26.07" x2="135.28" y2="26.07"/><polygon class="a" points="133.13 28.73 132.69 28.25 135.03 26.07 132.69 23.89 133.13 23.41 135.99 26.07 133.13 28.73"/><line class="e" x1="218.16" y1="26.07" x2="241.46" y2="26.07"/><polygon class="a" points="239.3 28.73 238.86 28.25 241.21 26.07 238.86 23.89 239.3 23.41 242.16 26.07 239.3 28.73"/><path class="d" d="M156.09,28.84h3.5v.85h-4.35V21.9h4.35v.85h-3.5v2.42H159V26h-2.9Z"/><path class="d" d="M165.61,29.69l-3.14-5.9v5.9h-.85V21.9h.87l3.12,5.76V21.9h.85v7.79Z"/><path class="d" d="M171.09,29.8v1.34h-.9V29.81c-1.48-.23-2.3-1.64-2.3-4,0-2.61,1-4.05,2.74-4.05s2.76,1.52,2.76,4.05C173.39,28.13,172.55,29.56,171.09,29.8Zm1.33-4c0-2.38-.56-3.34-1.79-3.33s-1.74,1-1.74,3.33c0,2,.43,3,1.3,3.19V27.05h.9V29C172,28.75,172.42,27.79,172.42,25.79Z"/><path class="d" d="M178.88,27.61V21.9h.84v5.71a2.15,2.15,0,0,1-2.45,2.23c-1.66,0-2.52-.9-2.52-2.23V21.9h.85v5.71a1.49,1.49,0,0,0,1.67,1.53A1.46,1.46,0,0,0,178.88,27.61Z"/><path class="d" d="M182.49,28.84H186v.85h-4.34V21.9H186v.85h-3.49v2.42h2.9V26h-2.9Z"/><path class="d" d="M192.08,27.61V21.9h.84v5.71a2.15,2.15,0,0,1-2.45,2.23c-1.66,0-2.52-.9-2.52-2.23V21.9h.85v5.71a1.49,1.49,0,0,0,1.67,1.53A1.46,1.46,0,0,0,192.08,27.61Z"/><path class="d" d="M195.69,28.84h3.49v.85h-4.34V21.9h4.34v.85h-3.49v2.42h2.89V26h-2.89Z"/><rect class="e" x="142.15" y="14.37" width="70.18" height="23.39"/><use width="70.83" height="24.04" transform="translate(247.68 14.05)" xlink:href="#b"/><use width="70.18" height="23.39" transform="translate(353.85 14.37)" xlink:href="#c"/><line class="f" x1="324.18" y1="26.07" x2="347.47" y2="26.07"/><polygon class="c" points="345.32 28.73 344.87 28.25 347.22 26.07 344.87 23.89 345.32 23.41 348.18 26.07 345.32 28.73"/><use width="70.18" height="23.39" transform="translate(89.73 62.22)" xlink:href="#a"/><line class="e" x1="165.75" y1="73.92" x2="189.04" y2="73.92"/><polygon class="a" points="186.89 76.58 186.44 76.1 188.79 73.92 186.44 71.74 186.89 71.26 189.75 73.92 186.89 76.58"/><use width="70.83" height="24.04" transform="translate(195.58 61.9)" xlink:href="#b"/><line class="f" x1="271.38" y1="73.92" x2="294.67" y2="73.92"/><polygon class="c" points="292.52 76.58 292.08 76.1 294.42 73.92 292.08 71.74 292.52 71.26 295.38 73.92 292.52 76.58"/><line class="g" x1="24" y1="49.86" x2="436" y2="49.86"/><use width="70.18" height="23.39" transform="translate(302.08 62.22)" xlink:href="#c"/></svg>