<svg xmlns="http://www.w3.org/2000/svg" xmlns:xlink="http://www.w3.org/1999/xlink" viewBox="0 0 94 36"><defs><style>.a{fill:#2b6a96;}.b,.c,.d{fill:none;stroke:#2b6997;stroke-miterlimit:10;}.c{stroke-dasharray:2.92 2.92;}.d{stroke-dasharray:2.91 2.91;}</style><symbol id="a" viewBox="0 0 71.17 24.39"><path class="a" d="M14.44,15h3.5v.85H13.59V8h4.35v.84h-3.5v2.42h2.9v.85h-2.9Z"/><path class="a" d="M24,15.82,20.82,9.91v5.91H20V8h.87L24,13.78V8h.85v7.79Z"/><path class="a" d="M29.44,15.93v1.34h-.9V15.94c-1.48-.23-2.3-1.64-2.3-4,0-2.61,1-4,2.74-4s2.76,1.51,2.76,4C31.74,14.26,30.9,15.69,29.44,15.93Zm1.33-4c0-2.38-.56-3.34-1.79-3.32s-1.74,1-1.74,3.32c0,2,.43,3,1.3,3.2V13.17h.9v1.94C30.34,14.88,30.77,13.91,30.77,11.91Z"/><path class="a" d="M37.23,13.73V8h.84v5.7A2.15,2.15,0,0,1,35.62,16c-1.66,0-2.52-.9-2.52-2.24V8H34v5.7a1.5,1.5,0,0,0,1.67,1.54A1.46,1.46,0,0,0,37.23,13.73Z"/><path class="a" d="M40.84,15h3.49v.85H40V8h4.34v.84H40.84v2.42h2.9v.85h-2.9Z"/><path class="a" d="M50.43,13.73V8h.84v5.7A2.15,2.15,0,0,1,48.82,16c-1.66,0-2.52-.9-2.52-2.24V8h.85v5.7a1.5,1.5,0,0,0,1.67,1.54A1.46,1.46,0,0,0,50.43,13.73Z"/><path class="a" d="M54,15h3.49v.85H53.19V8h4.34v.84H54v2.42h2.89v.85H54Z"/><polyline class="b" points="70.67 22.39 70.67 23.89 69.17 23.89"/><line class="c" x1="66.25" y1="23.89" x2="3.46" y2="23.89"/><polyline class="b" points="2 23.89 0.5 23.89 0.5 22.39"/><line class="d" x1="0.5" y1="19.48" x2="0.5" y2="3.46"/><polyline class="b" points="0.5 2 0.5 0.5 2 0.5"/><line class="c" x1="4.92" y1="0.5" x2="67.72" y2="0.5"/><polyline class="b" points="69.17 0.5 70.67 0.5 70.67 2"/><line class="d" x1="70.68" y1="4.91" x2="70.68" y2="20.94"/></symbol></defs><use width="71.18" height="24.39" transform="translate(11.41 5.8)" xlink:href="#a"/></svg>