<svg xmlns="http://www.w3.org/2000/svg" xmlns:xlink="http://www.w3.org/1999/xlink" viewBox="0 0 460 60"><defs><style>.a{fill:#763092;}.b{fill:#fff;}.c{fill:#2b6997;}.d{fill:#888;}.e,.f,.g{fill:none;stroke-miterlimit:10;stroke-width:0.65px;}.e{stroke:#2b6997;}.f{stroke:#763092;}.g{stroke:#888;}</style><symbol id="a" viewBox="0 0 70.17 23.39"><rect class="a" width="70.18" height="23.39" rx="11.7"/><path class="b" d="M17.16,9.11a36.54,36.54,0,0,1-1.4,3.45H14.9c-.3-.71-1-2.13-1.48-3.45v6.21h-.85V7.53h.87a43.13,43.13,0,0,0,1.85,4.07c.4-.76,1.28-2.72,1.78-4.07H18v7.79h-.84Z"/><path class="b" d="M23.13,13.12H20.62l-.6,2.2h-.85l2-7.79h1.19l2.19,7.79h-.84Zm-.2-.7-1-3.57h-.13l-1,3.57Z"/><path class="b" d="M26.14,15.32V7.53h2.35A2.26,2.26,0,0,1,30.93,9.9c0,1.68-1.2,2.3-3,2.3H27v3.12Zm.85-7v3h1.4c1.15,0,1.74-.49,1.74-1.45a1.44,1.44,0,0,0-1.64-1.53Z"/><path class="b" d="M32.74,15.32V7.53h2.35A2.26,2.26,0,0,1,37.53,9.9c0,1.68-1.2,2.3-3,2.3h-.9v3.12Zm.85-7v3H35c1.15,0,1.73-.49,1.73-1.45a1.43,1.43,0,0,0-1.63-1.53Z"/><path class="b" d="M43.86,15.32H39.53v-.7h1.73V8.22H39.79V7.53h3.7v.69H42.11v6.4H43.8v0A2.39,2.39,0,0,0,43.86,15.32Z"/><path class="b" d="M49.85,15.32,46.72,9.41v5.91h-.85V7.53h.87l3.11,5.75V7.53h.85v7.79Z"/><path class="b" d="M54.88,15.47c-1.77,0-2.77-1.41-2.77-3.92s1.2-4.18,3.07-4.18a3.16,3.16,0,0,1,2.26,1.14l-.71.58c-.61-.71-1-.93-1.55-.93-1.37,0-2.12,1.2-2.12,3.39,0,2,.63,3.12,1.82,3.12s1.87-.83,1.9-2.15H55v-.7h2.6v.7A2.65,2.65,0,0,1,54.88,15.47Z"/></symbol></defs><rect class="c" x="194.91" y="12.46" width="70.18" height="23.39" rx="11.7"/><path class="b" d="M212.88,26.12a2.76,2.76,0,0,1-2.69,1.81c-1.75,0-2.77-1.55-2.77-3.92s1.15-4.19,2.77-4.19a2.68,2.68,0,0,1,2.46,1.68l-.94.27a1.65,1.65,0,0,0-1.52-1.15c-1.11,0-1.82,1.33-1.82,3.39s.66,3.12,1.82,3.12A1.77,1.77,0,0,0,211.91,26Z"/><path class="b" d="M218,25.58h-2.51l-.6,2.2h-.85l2-7.8h1.19l2.2,7.8h-.85Zm-.2-.7-1-3.57h-.13l-1,3.57Z"/><path class="b" d="M221.17,27.78V20H222v7.1h3.63v.7Z"/><path class="b" d="M227.77,27.78V20h.85v7.1h3.63v.7Z"/><path class="b" d="M238.78,27.78h-4.34v-.7h1.73v-6.4H234.7V20h3.71v.7H237v6.4h1.7v0A2.39,2.39,0,0,0,238.78,27.78Z"/><path class="b" d="M244.77,27.78l-3.14-5.91v5.91h-.85V20h.87l3.12,5.76V20h.85v7.8Z"/><path class="b" d="M249.79,27.93C248,27.93,247,26.52,247,24s1.2-4.19,3.07-4.19A3.14,3.14,0,0,1,252.36,21l-.71.58c-.61-.71-1-.93-1.56-.93-1.37,0-2.12,1.2-2.12,3.39,0,2,.63,3.12,1.82,3.12A1.93,1.93,0,0,0,251.7,25h-1.83v-.7h2.61V25A2.65,2.65,0,0,1,249.79,27.93Z"/><rect class="d" x="88.74" y="12.46" width="70.18" height="23.39" rx="11.7"/><path class="b" d="M106.86,20a37.76,37.76,0,0,1-1,7.8h-.81A23.2,23.2,0,0,1,104,24.3a23.61,23.61,0,0,1-1.15,3.48H102a45.1,45.1,0,0,1-.83-7.8H102a35.87,35.87,0,0,0,.52,6.41,22,22,0,0,0,1-3.21h.86a22,22,0,0,0,1,3.21A33.2,33.2,0,0,0,106,20Z"/><path class="b" d="M111.86,25.58h-2.51l-.6,2.2h-.84l2-7.8h1.19l2.2,7.8h-.85Zm-.2-.7-1-3.57h-.13l-1,3.57Z"/><path class="b" d="M119.4,27.78h-4.34v-.7h1.73v-6.4h-1.47V20H119v.7h-1.39v6.4h1.7v0A2.39,2.39,0,0,0,119.4,27.78Z"/><path class="b" d="M126.36,20v.7h-2.15v7.1h-.85v-7.1h-2.08V20Z"/><path class="b" d="M132.6,27.78h-4.34v-.7H130v-6.4h-1.47V20h3.71v.7h-1.39v6.4h1.7v0A2.39,2.39,0,0,0,132.6,27.78Z"/><path class="b" d="M138.59,27.78l-3.14-5.91v5.91h-.85V20h.87l3.12,5.76V20h.85v7.8Z"/><path class="b" d="M143.61,27.93c-1.77,0-2.77-1.41-2.77-3.92s1.2-4.19,3.07-4.19A3.14,3.14,0,0,1,146.18,21l-.71.58c-.61-.71-1-.93-1.56-.93-1.37,0-2.12,1.2-2.12,3.39,0,2,.63,3.12,1.82,3.12A1.93,1.93,0,0,0,145.52,25h-1.83v-.7h2.61V25A2.65,2.65,0,0,1,143.61,27.93Z"/><line class="e" x1="164.91" y1="24.15" x2="188.21" y2="24.15"/><polygon class="c" points="186.05 26.81 185.61 26.33 187.96 24.15 185.61 21.97 186.05 21.49 188.91 24.15 186.05 26.81"/><line class="f" x1="271.09" y1="24.15" x2="294.38" y2="24.15"/><polygon class="a" points="292.23 26.81 291.79 26.33 294.13 24.15 291.79 21.97 292.23 21.49 295.09 24.15 292.23 26.81"/><polyline class="g" points="377.26 24.15 389.26 24.15 389.26 47.54 70.74 47.54 70.74 24.15 82.03 24.15"/><polygon class="d" points="79.88 26.81 79.44 26.33 81.78 24.15 79.44 21.97 79.88 21.49 82.74 24.15 79.88 26.81"/><use width="70.18" height="23.39" transform="translate(301.66 12.46)" xlink:href="#a"/></svg>