<svg xmlns="http://www.w3.org/2000/svg" xmlns:xlink="http://www.w3.org/1999/xlink" viewBox="0 0 460 135"><defs><style>.a{fill:#2b6a96;}.b,.c,.d,.f,.h,.j,.k,.m,.n{fill:none;stroke-miterlimit:10;}.b,.c,.d,.k,.n{stroke:#2b6997;}.c{stroke-dasharray:2.92 2.92;}.d{stroke-dasharray:2.91 2.91;}.e{fill:#d22127;}.f{stroke:#d22026;}.f,.h,.j,.k,.m,.n{stroke-width:0.65px;}.g{fill:#888;}.h{stroke:#888;}.i{fill:#f58420;}.j{stroke:#f58420;}.l{fill:#199e49;}.m{stroke:#199e49;}.n{stroke-dasharray:3 3;}.o{fill:#2b6997;}.p{fill:#d22026;}</style><symbol id="a" viewBox="0 0 71.17 24.39"><path class="a" d="M14.44,15h3.5v.85H13.59V8h4.35v.84h-3.5v2.42h2.9v.85h-2.9Z"/><path class="a" d="M24,15.82,20.82,9.91v5.91H20V8h.87L24,13.78V8h.85v7.79Z"/><path class="a" d="M29.44,15.93v1.34h-.9V15.94c-1.48-.23-2.3-1.64-2.3-4,0-2.61,1-4,2.74-4s2.76,1.51,2.76,4C31.74,14.26,30.9,15.69,29.44,15.93Zm1.33-4c0-2.38-.56-3.34-1.79-3.32s-1.74,1-1.74,3.32c0,2,.43,3,1.3,3.2V13.17h.9v1.94C30.34,14.88,30.77,13.91,30.77,11.91Z"/><path class="a" d="M37.23,13.73V8h.84v5.7A2.15,2.15,0,0,1,35.62,16c-1.66,0-2.52-.9-2.52-2.24V8H34v5.7a1.5,1.5,0,0,0,1.67,1.54A1.46,1.46,0,0,0,37.23,13.73Z"/><path class="a" d="M40.84,15h3.49v.85H40V8h4.34v.84H40.84v2.42h2.9v.85h-2.9Z"/><path class="a" d="M50.43,13.73V8h.84v5.7A2.15,2.15,0,0,1,48.82,16c-1.66,0-2.52-.9-2.52-2.24V8h.85v5.7a1.5,1.5,0,0,0,1.67,1.54A1.46,1.46,0,0,0,50.43,13.73Z"/><path class="a" d="M54,15h3.49v.85H53.19V8h4.34v.84H54v2.42h2.89v.85H54Z"/><polyline class="b" points="70.67 22.39 70.67 23.89 69.17 23.89"/><line class="c" x1="66.25" y1="23.89" x2="3.46" y2="23.89"/><polyline class="b" points="2 23.89 0.5 23.89 0.5 22.39"/><line class="d" x1="0.5" y1="19.48" x2="0.5" y2="3.46"/><polyline class="b" points="0.5 2 0.5 0.5 2 0.5"/><line class="c" x1="4.92" y1="0.5" x2="67.72" y2="0.5"/><polyline class="b" points="69.17 0.5 70.67 0.5 70.67 2"/><line class="d" x1="70.68" y1="4.91" x2="70.68" y2="20.94"/></symbol><symbol id="b" viewBox="0 0 70.83 24.04"><path class="l" d="M18.08,13.53c0,1.53-1.07,2.27-2.72,2.27a2.61,2.61,0,0,1-2.23-1l.59-.55a2,2,0,0,0,1.74.78c1.1,0,1.79-.4,1.81-1.43s-.54-1.31-1.51-1.48c-1.55-.27-2.58-1.08-2.58-2.32A2.16,2.16,0,0,1,15.54,7.7a2.68,2.68,0,0,1,2.25,1l-.56.53a1.86,1.86,0,0,0-1.58-.77C14.59,8.48,14,9,14,9.77s.62,1.28,1.88,1.53C17.36,11.59,18.08,12.15,18.08,13.53Z"/><path class="l" d="M23.85,13.56V7.85h.85v5.71a2.16,2.16,0,0,1-2.46,2.24c-1.66,0-2.52-.9-2.52-2.24V7.85h.85v5.71a1.5,1.5,0,0,0,1.67,1.54A1.46,1.46,0,0,0,23.85,13.56Z"/><path class="l" d="M31.49,14A2.76,2.76,0,0,1,28.8,15.8c-1.75,0-2.77-1.55-2.77-3.92s1.15-4.19,2.77-4.19a2.68,2.68,0,0,1,2.46,1.68l-.94.27A1.65,1.65,0,0,0,28.8,8.49C27.69,8.49,27,9.82,27,11.88S27.64,15,28.8,15a1.77,1.77,0,0,0,1.72-1.14Z"/><path class="l" d="M38.09,14A2.76,2.76,0,0,1,35.4,15.8c-1.75,0-2.77-1.55-2.77-3.92s1.15-4.19,2.77-4.19a2.68,2.68,0,0,1,2.46,1.68l-.94.27A1.65,1.65,0,0,0,35.4,8.49c-1.11,0-1.82,1.33-1.82,3.39S34.24,15,35.4,15a1.77,1.77,0,0,0,1.72-1.14Z"/><path class="l" d="M40.66,14.8h3.5v.85H39.81V7.85h4.35V8.7h-3.5v2.42h2.9V12h-2.9Z"/><path class="l" d="M51.08,13.53c0,1.53-1.07,2.27-2.72,2.27a2.61,2.61,0,0,1-2.23-1l.59-.55a2,2,0,0,0,1.74.78c1.1,0,1.79-.4,1.81-1.43s-.54-1.31-1.51-1.48c-1.55-.27-2.58-1.08-2.58-2.32A2.16,2.16,0,0,1,48.54,7.7a2.68,2.68,0,0,1,2.25,1l-.56.53a1.86,1.86,0,0,0-1.58-.77C47.59,8.48,47,9,47,9.77s.62,1.28,1.88,1.53C50.36,11.59,51.08,12.15,51.08,13.53Z"/><path class="l" d="M57.68,13.53c0,1.53-1.07,2.27-2.72,2.27a2.61,2.61,0,0,1-2.23-1l.59-.55a2,2,0,0,0,1.74.78c1.1,0,1.79-.4,1.81-1.43s-.54-1.31-1.51-1.48c-1.55-.27-2.58-1.08-2.58-2.32A2.16,2.16,0,0,1,55.14,7.7a2.68,2.68,0,0,1,2.25,1l-.56.53a1.86,1.86,0,0,0-1.58-.77c-1.06,0-1.67.47-1.67,1.29s.62,1.28,1.88,1.53C57,11.59,57.68,12.15,57.68,13.53Z"/><rect class="m" x="0.32" y="0.32" width="70.18" height="23.39"/></symbol><symbol id="c" viewBox="0 0 70.83 24.04"><path class="i" d="M18.15,7.85v.7H16v7.1h-.85V8.55H13.07v-.7Z"/><path class="i" d="M24.39,15.65H20.05V15h1.73V8.55H20.31v-.7H24v.7H22.63V15h1.7v0A2.39,2.39,0,0,0,24.39,15.65Z"/><path class="i" d="M30.68,9.44a36.54,36.54,0,0,1-1.4,3.45h-.86c-.3-.71-1-2.13-1.48-3.45v6.21h-.85V7.85H27a42.31,42.31,0,0,0,1.85,4.08,44.14,44.14,0,0,0,1.78-4.08h.94v7.8h-.85Z"/><path class="i" d="M34.06,14.8h3.5v.85H33.21V7.85h4.35V8.7h-3.5v2.42H37V12h-2.9Z"/><path class="i" d="M39.26,11.74c0-2.61,1-4,2.74-4s2.76,1.52,2.76,4.05-1,4.06-2.76,4.06S39.26,14.36,39.26,11.74Zm4.53,0c0-2.38-.56-3.34-1.79-3.33s-1.74,1-1.74,3.33S40.83,15,42,15,43.79,14.05,43.79,11.74Z"/><path class="i" d="M50.25,13.56V7.85h.85v5.71a2.16,2.16,0,0,1-2.46,2.24c-1.66,0-2.52-.9-2.52-2.24V7.85H47v5.71a1.5,1.5,0,0,0,1.67,1.54A1.46,1.46,0,0,0,50.25,13.56Z"/><path class="i" d="M57.75,7.85v.7H55.6v7.1h-.85V8.55H52.67v-.7Z"/><rect class="j" x="0.32" y="0.32" width="70.18" height="23.39"/></symbol><symbol id="d" viewBox="0 0 70.83 24.04"><path class="i" d="M12.86,11.74c0-2.61,1-4,2.74-4s2.76,1.52,2.76,4.05-1,4.06-2.76,4.06S12.86,14.36,12.86,11.74Zm4.53,0c0-2.38-.56-3.34-1.79-3.33s-1.74,1-1.74,3.33S14.43,15,15.6,15,17.39,14.05,17.39,11.74Z"/><path class="i" d="M21,12.53v3.12h-.85V7.85h4.35V8.7H21v3h2.9v.85Z"/><path class="i" d="M27.56,12.53v3.12h-.85V7.85h4.35V8.7h-3.5v3h2.9v.85Z"/><path class="i" d="M33.18,15.65V7.85H34V15h3.63v.7Z"/><path class="i" d="M44.19,15.65H39.85V15h1.73V8.55H40.11v-.7h3.71v.7H42.43V15h1.7v0A2.39,2.39,0,0,0,44.19,15.65Z"/><path class="i" d="M50.18,15.65,47,9.74v5.91h-.85V7.85h.87l3.12,5.76V7.85H51v7.8Z"/><path class="i" d="M53.86,14.8h3.5v.85H53V7.85h4.35V8.7h-3.5v2.42h2.9V12h-2.9Z"/><rect class="j" x="0.32" y="0.32" width="70.18" height="23.39"/></symbol><symbol id="e" viewBox="0 0 70.83 24.04"><path class="e" d="M17.48,9.44a36.54,36.54,0,0,1-1.4,3.45h-.86c-.3-.71-1-2.13-1.48-3.45v6.21h-.85V7.85h.87a42.31,42.31,0,0,0,1.85,4.08,44.14,44.14,0,0,0,1.78-4.08h.94v7.8h-.85Z"/><path class="e" d="M24.39,15.65H20.05V15h1.73V8.55H20.31v-.7H24v.7H22.63V15h1.7v0A2.39,2.39,0,0,0,24.39,15.65Z"/><path class="e" d="M31.28,13.53c0,1.53-1.07,2.27-2.72,2.27a2.61,2.61,0,0,1-2.23-1l.59-.55a2,2,0,0,0,1.74.78c1.1,0,1.79-.4,1.81-1.43S29.93,12.3,29,12.13c-1.55-.27-2.58-1.08-2.58-2.32A2.16,2.16,0,0,1,28.74,7.7a2.68,2.68,0,0,1,2.25,1l-.56.53a1.86,1.86,0,0,0-1.58-.77c-1.06,0-1.67.47-1.67,1.29s.62,1.28,1.88,1.53C30.56,11.59,31.28,12.15,31.28,13.53Z"/><path class="e" d="M38,7.85v.7H35.8v7.1H35V8.55H32.87v-.7Z"/><path class="e" d="M43.25,13.45H40.74l-.6,2.2h-.85l2.05-7.8h1.19l2.2,7.8h-.85Zm-.2-.7L42,9.18h-.13l-1,3.57Z"/><path class="e" d="M50.23,15.65l-2.85-3.08-.32.4v2.68h-.85V7.84h.85v3.68l3-3.68h1.13l-3.25,4,3.54,3.8Z"/><path class="e" d="M53.86,14.8h3.5v.85H53V7.85h4.35V8.7h-3.5v2.42h2.9V12h-2.9Z"/><rect class="f" x="0.32" y="0.32" width="70.18" height="23.39"/></symbol><symbol id="f" viewBox="0 0 70.83 24.04"><path class="e" d="M14.36,12.53v3.12h-.85V7.85h4.35V8.7h-3.5v3h2.9v.85Z"/><path class="e" d="M23.45,13.45H20.94l-.6,2.2h-.85l2.05-7.8h1.19l2.2,7.8h-.85Zm-.2-.7-1-3.57h-.13l-1,3.57Z"/><path class="e" d="M31,15.65H26.65V15h1.73V8.55H26.91v-.7h3.71v.7H29.23V15h1.7v0A2.39,2.39,0,0,0,31,15.65Z"/><path class="e" d="M33.18,15.65V7.85H34V15h3.63v.7Z"/><path class="e" d="M43.65,13.56V7.85h.85v5.71A2.16,2.16,0,0,1,42,15.8c-1.66,0-2.52-.9-2.52-2.24V7.85h.85v5.71A1.5,1.5,0,0,0,42,15.1,1.46,1.46,0,0,0,43.65,13.56Z"/><path class="e" d="M50.17,15.65c0-.53-1-2-1.66-3.14l-.55,0h-.9v3.12h-.85V7.85h2.35A2.27,2.27,0,0,1,51,10.23a2,2,0,0,1-1.58,2.12c.67,1.19,1.74,2.74,1.74,3.3Zm-1.71-4c1.15,0,1.74-.49,1.74-1.45A1.44,1.44,0,0,0,48.56,8.7h-1.5v3Z"/><path class="e" d="M53.86,14.8h3.5v.85H53V7.85h4.35V8.7h-3.5v2.42h2.9V12h-2.9Z"/><rect class="f" x="0.32" y="0.32" width="70.18" height="23.39"/></symbol><symbol id="g" viewBox="0 0 70.83 24.04"><path class="a" d="M17.17,15.65c0-.53-1-2-1.66-3.14l-.55,0h-.9v3.12h-.85V7.85h2.35A2.27,2.27,0,0,1,18,10.23a2,2,0,0,1-1.58,2.12c.67,1.19,1.74,2.74,1.74,3.3Zm-1.71-4c1.15,0,1.74-.49,1.74-1.45A1.44,1.44,0,0,0,15.56,8.7h-1.5v3Z"/><path class="a" d="M20.86,14.8h3.5v.85H20V7.85h4.35V8.7h-3.5v2.42h2.9V12h-2.9Z"/><path class="a" d="M29.26,15.76V17.1h-.9V15.77c-1.48-.23-2.3-1.64-2.3-4,0-2.61,1-4,2.74-4s2.76,1.52,2.76,4.05C31.56,14.09,30.72,15.52,29.26,15.76Zm1.33-4c0-2.38-.56-3.34-1.79-3.33s-1.74,1-1.74,3.33c0,2,.43,3,1.3,3.2V13h.9v1.94C30.16,14.71,30.59,13.74,30.59,11.74Z"/><path class="a" d="M37.05,13.56V7.85h.85v5.71a2.16,2.16,0,0,1-2.46,2.24c-1.66,0-2.52-.9-2.52-2.24V7.85h.85v5.71a1.5,1.5,0,0,0,1.67,1.54A1.46,1.46,0,0,0,37.05,13.56Z"/><path class="a" d="M40.66,14.8h3.5v.85H39.81V7.85h4.35V8.7h-3.5v2.42h2.9V12h-2.9Z"/><path class="a" d="M51.08,13.53c0,1.53-1.07,2.27-2.72,2.27a2.61,2.61,0,0,1-2.23-1l.59-.55a2,2,0,0,0,1.74.78c1.1,0,1.79-.4,1.81-1.43s-.54-1.31-1.51-1.48c-1.55-.27-2.58-1.08-2.58-2.32A2.16,2.16,0,0,1,48.54,7.7a2.68,2.68,0,0,1,2.25,1l-.56.53a1.86,1.86,0,0,0-1.58-.77C47.59,8.48,47,9,47,9.77s.62,1.28,1.88,1.53C50.36,11.59,51.08,12.15,51.08,13.53Z"/><path class="a" d="M57.75,7.85v.7H55.6v7.1h-.85V8.55H52.67v-.7Z"/><rect class="k" x="0.32" y="0.32" width="70.18" height="23.39"/></symbol><symbol id="h" viewBox="0 0 70.83 24.04"><path class="g" d="M17.79,15.65H13.45V15h1.73V8.55H13.71v-.7h3.71v.7H16V15h1.7v0A2.39,2.39,0,0,0,17.79,15.65Z"/><path class="g" d="M23.78,15.65,20.64,9.74v5.91h-.85V7.85h.87l3.12,5.76V7.85h.85v7.8Z"/><path class="g" d="M31,15.65H26.65V15h1.73V8.55H26.91v-.7h3.71v.7H29.23V15h1.7v0A2.39,2.39,0,0,0,31,15.65Z"/><path class="g" d="M38,7.85v.7H35.8v7.1H35V8.55H32.87v-.7Z"/><path class="g" d="M44.19,15.65H39.85V15h1.73V8.55H40.11v-.7h3.71v.7H42.43V15h1.7v0A2.39,2.39,0,0,0,44.19,15.65Z"/><path class="g" d="M49.85,13.45H47.34l-.6,2.2h-.85l2-7.8h1.19l2.2,7.8h-.85Zm-.2-.7-1-3.57h-.13l-1,3.57Z"/><path class="g" d="M53,15.65V7.85h.85V15h3.63v.7Z"/><rect class="h" x="0.32" y="0.32" width="70.18" height="23.39"/></symbol></defs><use width="71.18" height="24.39" transform="translate(141.6 13.91)" xlink:href="#a"/><use width="70.83" height="24.04" transform="translate(247.95 14.09)" xlink:href="#b"/><use width="70.83" height="24.04" transform="translate(324.44 96.87)" xlink:href="#c"/><use width="70.83" height="24.04" transform="translate(247.95 96.87)" xlink:href="#d"/><use width="70.83" height="24.04" transform="translate(324.44 55.48)" xlink:href="#e"/><use width="70.83" height="24.04" transform="translate(247.95 55.48)" xlink:href="#f"/><use width="70.83" height="24.04" transform="translate(141.77 55.48)" xlink:href="#g"/><line class="n" x1="112.1" y1="21.93" x2="135.39" y2="21.93"/><polygon class="o" points="133.24 24.59 132.79 24.12 135.14 21.93 132.79 19.75 133.24 19.28 136.1 21.93 133.24 24.59"/><polyline class="k" points="112.64 31.18 124.1 31.18 124.1 67.5 135.39 67.5"/><polygon class="o" points="133.24 70.16 132.79 69.68 135.14 67.5 132.79 65.32 133.24 64.84 136.1 67.5 133.24 70.16"/><line class="k" x1="177.18" y1="40.8" x2="177.18" y2="52.1"/><polygon class="o" points="174.53 49.95 175 49.5 177.18 51.85 179.37 49.5 179.84 49.95 177.18 52.8 174.53 49.95"/><polyline class="j" points="218.27 73.5 230.27 73.5 230.27 108.89 241.57 108.89"/><polygon class="i" points="239.41 111.55 238.97 111.07 241.32 108.89 238.97 106.71 239.41 106.23 242.27 108.89 239.41 111.55"/><polyline class="m" points="218.27 61.5 230.27 61.5 230.27 26.11 241.57 26.11"/><polygon class="l" points="239.41 28.77 238.97 28.29 241.32 26.11 238.97 23.93 239.41 23.45 242.27 26.11 239.41 28.77"/><line class="f" x1="218.27" y1="67.5" x2="241.57" y2="67.5"/><polygon class="p" points="239.41 70.16 238.97 69.68 241.32 67.5 238.97 65.32 239.41 64.84 242.27 67.5 239.41 70.16"/><use width="70.83" height="24.04" transform="translate(35.27 14.09)" xlink:href="#h"/></svg>