<svg xmlns="http://www.w3.org/2000/svg" xmlns:xlink="http://www.w3.org/1999/xlink" viewBox="0 0 94 36"><defs><style>.a{fill:#d22127;}.b{fill:none;stroke:#d22026;stroke-miterlimit:10;stroke-width:0.65px;}</style><symbol id="a" viewBox="0 0 70.83 24.04"><path class="a" d="M14.36,12.53v3.12h-.85V7.85h4.35V8.7h-3.5v3h2.9v.85Z"/><path class="a" d="M23.45,13.45H20.94l-.6,2.2h-.85l2.05-7.8h1.19l2.2,7.8h-.85Zm-.2-.7-1-3.57h-.13l-1,3.57Z"/><path class="a" d="M31,15.65H26.65V15h1.73V8.55H26.91v-.7h3.71v.7H29.23V15h1.7v0A2.39,2.39,0,0,0,31,15.65Z"/><path class="a" d="M33.18,15.65V7.85H34V15h3.63v.7Z"/><path class="a" d="M43.65,13.56V7.85h.85v5.71A2.16,2.16,0,0,1,42,15.8c-1.66,0-2.52-.9-2.52-2.24V7.85h.85v5.71A1.5,1.5,0,0,0,42,15.1,1.46,1.46,0,0,0,43.65,13.56Z"/><path class="a" d="M50.17,15.65c0-.53-1-2-1.66-3.14l-.55,0h-.9v3.12h-.85V7.85h2.35A2.27,2.27,0,0,1,51,10.23a2,2,0,0,1-1.58,2.12c.67,1.19,1.74,2.74,1.74,3.3Zm-1.71-4c1.15,0,1.74-.49,1.74-1.45A1.44,1.44,0,0,0,48.56,8.7h-1.5v3Z"/><path class="a" d="M53.86,14.8h3.5v.85H53V7.85h4.35V8.7h-3.5v2.42h2.9V12h-2.9Z"/><rect class="b" x="0.32" y="0.32" width="70.18" height="23.39"/></symbol></defs><use width="70.83" height="24.04" transform="translate(11.59 5.98)" xlink:href="#a"/></svg>