<svg xmlns="http://www.w3.org/2000/svg" xmlns:xlink="http://www.w3.org/1999/xlink" viewBox="0 0 460 100"><defs><style>.a{fill:#2b6997;}.b{fill:#fff;}.c{fill:#888;}.d,.e{fill:none;stroke-miterlimit:10;stroke-width:0.65px;}.d{stroke:#888;}.e{stroke:#2b6997;}</style><symbol id="a" viewBox="0 0 70.83 24.04"><path class="c" d="M17.79,15.65H13.45V15h1.73V8.55H13.71v-.7h3.71v.7H16V15h1.7v0A2.39,2.39,0,0,0,17.79,15.65Z"/><path class="c" d="M23.78,15.65,20.64,9.74v5.91h-.85V7.85h.87l3.12,5.76V7.85h.85v7.8Z"/><path class="c" d="M31,15.65H26.65V15h1.73V8.55H26.91v-.7h3.71v.7H29.23V15h1.7v0A2.39,2.39,0,0,0,31,15.65Z"/><path class="c" d="M38,7.85v.7H35.8v7.1H35V8.55H32.87v-.7Z"/><path class="c" d="M44.19,15.65H39.85V15h1.73V8.55H40.11v-.7h3.71v.7H42.43V15h1.7v0A2.39,2.39,0,0,0,44.19,15.65Z"/><path class="c" d="M49.85,13.45H47.34l-.6,2.2h-.85l2-7.8h1.19l2.2,7.8h-.85Zm-.2-.7-1-3.57h-.13l-1,3.57Z"/><path class="c" d="M53,15.65V7.85h.85V15h3.63v.7Z"/><rect class="d" x="0.32" y="0.32" width="70.18" height="23.39"/></symbol><symbol id="b" viewBox="0 0 70.17 23.39"><rect class="a" width="70.18" height="23.39" rx="11.7"/><path class="b" d="M18,13.66a2.76,2.76,0,0,1-2.69,1.81c-1.75,0-2.77-1.55-2.77-3.92s1.15-4.18,2.77-4.18A2.67,2.67,0,0,1,17.74,9l-.94.27a1.65,1.65,0,0,0-1.52-1.15c-1.11,0-1.82,1.33-1.82,3.39s.66,3.12,1.82,3.12A1.77,1.77,0,0,0,17,13.53Z"/><path class="b" d="M23.13,13.12H20.62l-.6,2.2h-.85l2-7.79h1.19l2.2,7.79h-.85Zm-.2-.7-1-3.57h-.13l-1,3.57Z"/><path class="b" d="M26.26,15.32V7.53h.85v7.09h3.63v.7Z"/><path class="b" d="M32.86,15.32V7.53h.85v7.09h3.62v.7Z"/><path class="b" d="M43.87,15.32H39.53v-.7h1.73V8.22H39.79V7.53H43.5v.69H42.11v6.4h1.7v0A2.39,2.39,0,0,0,43.87,15.32Z"/><path class="b" d="M49.86,15.32,46.72,9.41v5.91h-.85V7.53h.87l3.12,5.75V7.53h.84v7.79Z"/><path class="b" d="M54.88,15.47c-1.77,0-2.77-1.41-2.77-3.92s1.2-4.18,3.07-4.18a3.13,3.13,0,0,1,2.26,1.14l-.71.58c-.6-.71-1-.93-1.55-.93-1.37,0-2.12,1.2-2.12,3.39,0,2,.63,3.12,1.82,3.12s1.87-.83,1.9-2.15H55v-.7h2.6v.7A2.65,2.65,0,0,1,54.88,15.47Z"/></symbol><symbol id="c" viewBox="0 0 70.17 23.39"><rect class="c" width="70.18" height="23.39" rx="11.7"/><path class="b" d="M18.13,7.53a37.75,37.75,0,0,1-1,7.79h-.81a23.2,23.2,0,0,1-1.08-3.48,23.61,23.61,0,0,1-1.15,3.48h-.81a45.09,45.09,0,0,1-.84-7.79h.85a35.83,35.83,0,0,0,.52,6.4,22,22,0,0,0,1-3.21h.86a22,22,0,0,0,1,3.21,33.17,33.17,0,0,0,.61-6.4Z"/><path class="b" d="M23.13,13.12H20.62l-.6,2.2h-.85l2-7.79h1.19l2.2,7.79h-.85Zm-.2-.7-1-3.57h-.13l-1,3.57Z"/><path class="b" d="M30.67,15.32H26.33v-.7h1.73V8.22H26.59V7.53H30.3v.69H28.91v6.4h1.7v0A2.39,2.39,0,0,0,30.67,15.32Z"/><path class="b" d="M37.62,7.53v.69H35.48v7.1h-.85V8.22H32.55V7.53Z"/><path class="b" d="M43.87,15.32H39.53v-.7h1.73V8.22H39.79V7.53H43.5v.69H42.11v6.4h1.7v0A2.39,2.39,0,0,0,43.87,15.32Z"/><path class="b" d="M49.86,15.32,46.72,9.41v5.91h-.85V7.53h.87l3.12,5.75V7.53h.84v7.79Z"/><path class="b" d="M54.88,15.47c-1.77,0-2.77-1.41-2.77-3.92s1.2-4.18,3.07-4.18a3.13,3.13,0,0,1,2.26,1.14l-.71.58c-.6-.71-1-.93-1.55-.93-1.37,0-2.12,1.2-2.12,3.39,0,2,.63,3.12,1.82,3.12s1.87-.83,1.9-2.15H55v-.7h2.6v.7A2.65,2.65,0,0,1,54.88,15.47Z"/></symbol></defs><use width="70.83" height="24.04" transform="translate(141.93 12.87)" xlink:href="#a"/><use width="70.18" height="23.39" transform="translate(248.43 13.2)" xlink:href="#b"/><line class="e" x1="218.43" y1="24.89" x2="241.73" y2="24.89"/><polygon class="a" points="239.57 27.55 239.13 27.07 241.48 24.89 239.13 22.71 239.57 22.23 242.43 24.89 239.57 27.55"/><use width="70.18" height="23.39" transform="translate(141.96 61.21)" xlink:href="#c"/><use width="70.18" height="23.39" transform="translate(247.86 61.21)" xlink:href="#b"/><line class="e" x1="217.86" y1="72.9" x2="241.16" y2="72.9"/><polygon class="a" points="239.01 75.56 238.56 75.08 240.91 72.9 238.56 70.72 239.01 70.24 241.86 72.9 239.01 75.56"/><line class="d" x1="24" y1="49.2" x2="436" y2="49.2"/></svg>