<svg xmlns="http://www.w3.org/2000/svg" xmlns:xlink="http://www.w3.org/1999/xlink" viewBox="0 0 94 36"><defs><style>.a{fill:#763092;}.b{fill:#fff;}</style><symbol id="a" viewBox="0 0 70.17 23.39"><rect class="a" width="70.18" height="23.39" rx="11.7"/><path class="b" d="M17.16,9.11a36.54,36.54,0,0,1-1.4,3.45H14.9c-.3-.71-1-2.13-1.48-3.45v6.21h-.85V7.53h.87a43.13,43.13,0,0,0,1.85,4.07c.4-.76,1.28-2.72,1.78-4.07H18v7.79h-.84Z"/><path class="b" d="M23.13,13.12H20.62l-.6,2.2h-.85l2-7.79h1.19l2.19,7.79h-.84Zm-.2-.7-1-3.57h-.13l-1,3.57Z"/><path class="b" d="M26.14,15.32V7.53h2.35A2.26,2.26,0,0,1,30.93,9.9c0,1.68-1.2,2.3-3,2.3H27v3.12Zm.85-7v3h1.4c1.15,0,1.74-.49,1.74-1.45a1.44,1.44,0,0,0-1.64-1.53Z"/><path class="b" d="M32.74,15.32V7.53h2.35A2.26,2.26,0,0,1,37.53,9.9c0,1.68-1.2,2.3-3,2.3h-.9v3.12Zm.85-7v3H35c1.15,0,1.73-.49,1.73-1.45a1.43,1.43,0,0,0-1.63-1.53Z"/><path class="b" d="M43.86,15.32H39.53v-.7h1.73V8.22H39.79V7.53h3.7v.69H42.11v6.4H43.8v0A2.39,2.39,0,0,0,43.86,15.32Z"/><path class="b" d="M49.85,15.32,46.72,9.41v5.91h-.85V7.53h.87l3.11,5.75V7.53h.85v7.79Z"/><path class="b" d="M54.88,15.47c-1.77,0-2.77-1.41-2.77-3.92s1.2-4.18,3.07-4.18a3.16,3.16,0,0,1,2.26,1.14l-.71.58c-.61-.71-1-.93-1.55-.93-1.37,0-2.12,1.2-2.12,3.39,0,2,.63,3.12,1.82,3.12s1.87-.83,1.9-2.15H55v-.7h2.6v.7A2.65,2.65,0,0,1,54.88,15.47Z"/></symbol></defs><use width="70.18" height="23.39" transform="translate(11.91 6.3)" xlink:href="#a"/></svg>