<svg xmlns="http://www.w3.org/2000/svg" xmlns:xlink="http://www.w3.org/1999/xlink" viewBox="0 0 460 130"><defs><style>.a{fill:#d22127;}.b,.f,.h,.i,.j{fill:none;stroke-miterlimit:10;stroke-width:0.65px;}.b{stroke:#d22026;}.c{fill:#763092;}.d{fill:#fff;}.e{fill:#f58420;}.f{stroke:#f58420;}.g{fill:#199e49;}.h{stroke:#199e49;}.i{stroke:#763092;}.j{stroke:#888;}.k{fill:#888;}</style><symbol id="a" viewBox="0 0 70.83 24.04"><path class="g" d="M18.08,13.53c0,1.53-1.07,2.27-2.72,2.27a2.61,2.61,0,0,1-2.23-1l.59-.55a2,2,0,0,0,1.74.78c1.1,0,1.79-.4,1.81-1.43s-.54-1.31-1.51-1.48c-1.55-.27-2.58-1.08-2.58-2.32A2.16,2.16,0,0,1,15.54,7.7a2.68,2.68,0,0,1,2.25,1l-.56.53a1.86,1.86,0,0,0-1.58-.77C14.59,8.48,14,9,14,9.77s.62,1.28,1.88,1.53C17.36,11.59,18.08,12.15,18.08,13.53Z"/><path class="g" d="M23.85,13.56V7.85h.85v5.71a2.16,2.16,0,0,1-2.46,2.24c-1.66,0-2.52-.9-2.52-2.24V7.85h.85v5.71a1.5,1.5,0,0,0,1.67,1.54A1.46,1.46,0,0,0,23.85,13.56Z"/><path class="g" d="M31.49,14A2.76,2.76,0,0,1,28.8,15.8c-1.75,0-2.77-1.55-2.77-3.92s1.15-4.19,2.77-4.19a2.68,2.68,0,0,1,2.46,1.68l-.94.27A1.65,1.65,0,0,0,28.8,8.49C27.69,8.49,27,9.82,27,11.88S27.64,15,28.8,15a1.77,1.77,0,0,0,1.72-1.14Z"/><path class="g" d="M38.09,14A2.76,2.76,0,0,1,35.4,15.8c-1.75,0-2.77-1.55-2.77-3.92s1.15-4.19,2.77-4.19a2.68,2.68,0,0,1,2.46,1.68l-.94.27A1.65,1.65,0,0,0,35.4,8.49c-1.11,0-1.82,1.33-1.82,3.39S34.24,15,35.4,15a1.77,1.77,0,0,0,1.72-1.14Z"/><path class="g" d="M40.66,14.8h3.5v.85H39.81V7.85h4.35V8.7h-3.5v2.42h2.9V12h-2.9Z"/><path class="g" d="M51.08,13.53c0,1.53-1.07,2.27-2.72,2.27a2.61,2.61,0,0,1-2.23-1l.59-.55a2,2,0,0,0,1.74.78c1.1,0,1.79-.4,1.81-1.43s-.54-1.31-1.51-1.48c-1.55-.27-2.58-1.08-2.58-2.32A2.16,2.16,0,0,1,48.54,7.7a2.68,2.68,0,0,1,2.25,1l-.56.53a1.86,1.86,0,0,0-1.58-.77C47.59,8.48,47,9,47,9.77s.62,1.28,1.88,1.53C50.36,11.59,51.08,12.15,51.08,13.53Z"/><path class="g" d="M57.68,13.53c0,1.53-1.07,2.27-2.72,2.27a2.61,2.61,0,0,1-2.23-1l.59-.55a2,2,0,0,0,1.74.78c1.1,0,1.79-.4,1.81-1.43s-.54-1.31-1.51-1.48c-1.55-.27-2.58-1.08-2.58-2.32A2.16,2.16,0,0,1,55.14,7.7a2.68,2.68,0,0,1,2.25,1l-.56.53a1.86,1.86,0,0,0-1.58-.77c-1.06,0-1.67.47-1.67,1.29s.62,1.28,1.88,1.53C57,11.59,57.68,12.15,57.68,13.53Z"/><rect class="h" x="0.32" y="0.32" width="70.18" height="23.39"/></symbol><symbol id="b" viewBox="0 0 70.83 24.04"><path class="e" d="M18.15,7.85v.7H16v7.1h-.85V8.55H13.07v-.7Z"/><path class="e" d="M24.39,15.65H20.05V15h1.73V8.55H20.31v-.7H24v.7H22.63V15h1.7v0A2.39,2.39,0,0,0,24.39,15.65Z"/><path class="e" d="M30.68,9.44a36.54,36.54,0,0,1-1.4,3.45h-.86c-.3-.71-1-2.13-1.48-3.45v6.21h-.85V7.85H27a42.31,42.31,0,0,0,1.85,4.08,44.14,44.14,0,0,0,1.78-4.08h.94v7.8h-.85Z"/><path class="e" d="M34.06,14.8h3.5v.85H33.21V7.85h4.35V8.7h-3.5v2.42H37V12h-2.9Z"/><path class="e" d="M39.26,11.74c0-2.61,1-4,2.74-4s2.76,1.52,2.76,4.05-1,4.06-2.76,4.06S39.26,14.36,39.26,11.74Zm4.53,0c0-2.38-.56-3.34-1.79-3.33s-1.74,1-1.74,3.33S40.83,15,42,15,43.79,14.05,43.79,11.74Z"/><path class="e" d="M50.25,13.56V7.85h.85v5.71a2.16,2.16,0,0,1-2.46,2.24c-1.66,0-2.52-.9-2.52-2.24V7.85H47v5.71a1.5,1.5,0,0,0,1.67,1.54A1.46,1.46,0,0,0,50.25,13.56Z"/><path class="e" d="M57.75,7.85v.7H55.6v7.1h-.85V8.55H52.67v-.7Z"/><rect class="f" x="0.32" y="0.32" width="70.18" height="23.39"/></symbol><symbol id="c" viewBox="0 0 70.83 24.04"><path class="e" d="M12.86,11.74c0-2.61,1-4,2.74-4s2.76,1.52,2.76,4.05-1,4.06-2.76,4.06S12.86,14.36,12.86,11.74Zm4.53,0c0-2.38-.56-3.34-1.79-3.33s-1.74,1-1.74,3.33S14.43,15,15.6,15,17.39,14.05,17.39,11.74Z"/><path class="e" d="M21,12.53v3.12h-.85V7.85h4.35V8.7H21v3h2.9v.85Z"/><path class="e" d="M27.56,12.53v3.12h-.85V7.85h4.35V8.7h-3.5v3h2.9v.85Z"/><path class="e" d="M33.18,15.65V7.85H34V15h3.63v.7Z"/><path class="e" d="M44.19,15.65H39.85V15h1.73V8.55H40.11v-.7h3.71v.7H42.43V15h1.7v0A2.39,2.39,0,0,0,44.19,15.65Z"/><path class="e" d="M50.18,15.65,47,9.74v5.91h-.85V7.85h.87l3.12,5.76V7.85H51v7.8Z"/><path class="e" d="M53.86,14.8h3.5v.85H53V7.85h4.35V8.7h-3.5v2.42h2.9V12h-2.9Z"/><rect class="f" x="0.32" y="0.32" width="70.18" height="23.39"/></symbol><symbol id="d" viewBox="0 0 70.83 24.04"><path class="a" d="M17.48,9.44a36.54,36.54,0,0,1-1.4,3.45h-.86c-.3-.71-1-2.13-1.48-3.45v6.21h-.85V7.85h.87a42.31,42.31,0,0,0,1.85,4.08,44.14,44.14,0,0,0,1.78-4.08h.94v7.8h-.85Z"/><path class="a" d="M24.39,15.65H20.05V15h1.73V8.55H20.31v-.7H24v.7H22.63V15h1.7v0A2.39,2.39,0,0,0,24.39,15.65Z"/><path class="a" d="M31.28,13.53c0,1.53-1.07,2.27-2.72,2.27a2.61,2.61,0,0,1-2.23-1l.59-.55a2,2,0,0,0,1.74.78c1.1,0,1.79-.4,1.81-1.43S29.93,12.3,29,12.13c-1.55-.27-2.58-1.08-2.58-2.32A2.16,2.16,0,0,1,28.74,7.7a2.68,2.68,0,0,1,2.25,1l-.56.53a1.86,1.86,0,0,0-1.58-.77c-1.06,0-1.67.47-1.67,1.29s.62,1.28,1.88,1.53C30.56,11.59,31.28,12.15,31.28,13.53Z"/><path class="a" d="M38,7.85v.7H35.8v7.1H35V8.55H32.87v-.7Z"/><path class="a" d="M43.25,13.45H40.74l-.6,2.2h-.85l2.05-7.8h1.19l2.2,7.8h-.85Zm-.2-.7L42,9.18h-.13l-1,3.57Z"/><path class="a" d="M50.23,15.65l-2.85-3.08-.32.4v2.68h-.85V7.84h.85v3.68l3-3.68h1.13l-3.25,4,3.54,3.8Z"/><path class="a" d="M53.86,14.8h3.5v.85H53V7.85h4.35V8.7h-3.5v2.42h2.9V12h-2.9Z"/><rect class="b" x="0.32" y="0.32" width="70.18" height="23.39"/></symbol><symbol id="e" viewBox="0 0 70.83 24.04"><path class="a" d="M14.36,12.53v3.12h-.85V7.85h4.35V8.7h-3.5v3h2.9v.85Z"/><path class="a" d="M23.45,13.45H20.94l-.6,2.2h-.85l2.05-7.8h1.19l2.2,7.8h-.85Zm-.2-.7-1-3.57h-.13l-1,3.57Z"/><path class="a" d="M31,15.65H26.65V15h1.73V8.55H26.91v-.7h3.71v.7H29.23V15h1.7v0A2.39,2.39,0,0,0,31,15.65Z"/><path class="a" d="M33.18,15.65V7.85H34V15h3.63v.7Z"/><path class="a" d="M43.65,13.56V7.85h.85v5.71A2.16,2.16,0,0,1,42,15.8c-1.66,0-2.52-.9-2.52-2.24V7.85h.85v5.71A1.5,1.5,0,0,0,42,15.1,1.46,1.46,0,0,0,43.65,13.56Z"/><path class="a" d="M50.17,15.65c0-.53-1-2-1.66-3.14l-.55,0h-.9v3.12h-.85V7.85h2.35A2.27,2.27,0,0,1,51,10.23a2,2,0,0,1-1.58,2.12c.67,1.19,1.74,2.74,1.74,3.3Zm-1.71-4c1.15,0,1.74-.49,1.74-1.45A1.44,1.44,0,0,0,48.56,8.7h-1.5v3Z"/><path class="a" d="M53.86,14.8h3.5v.85H53V7.85h4.35V8.7h-3.5v2.42h2.9V12h-2.9Z"/><rect class="b" x="0.32" y="0.32" width="70.18" height="23.39"/></symbol><symbol id="f" viewBox="0 0 70.17 23.39"><rect class="c" width="70.18" height="23.39" rx="11.7"/><path class="d" d="M17.16,9.11a36.54,36.54,0,0,1-1.4,3.45H14.9c-.3-.71-1-2.13-1.48-3.45v6.21h-.85V7.53h.87a43.13,43.13,0,0,0,1.85,4.07c.4-.76,1.28-2.72,1.78-4.07H18v7.79h-.84Z"/><path class="d" d="M23.13,13.12H20.62l-.6,2.2h-.85l2-7.79h1.19l2.19,7.79h-.84Zm-.2-.7-1-3.57h-.13l-1,3.57Z"/><path class="d" d="M26.14,15.32V7.53h2.35A2.26,2.26,0,0,1,30.93,9.9c0,1.68-1.2,2.3-3,2.3H27v3.12Zm.85-7v3h1.4c1.15,0,1.74-.49,1.74-1.45a1.44,1.44,0,0,0-1.64-1.53Z"/><path class="d" d="M32.74,15.32V7.53h2.35A2.26,2.26,0,0,1,37.53,9.9c0,1.68-1.2,2.3-3,2.3h-.9v3.12Zm.85-7v3H35c1.15,0,1.73-.49,1.73-1.45a1.43,1.43,0,0,0-1.63-1.53Z"/><path class="d" d="M43.86,15.32H39.53v-.7h1.73V8.22H39.79V7.53h3.7v.69H42.11v6.4H43.8v0A2.39,2.39,0,0,0,43.86,15.32Z"/><path class="d" d="M49.85,15.32,46.72,9.41v5.91h-.85V7.53h.87l3.11,5.75V7.53h.85v7.79Z"/><path class="d" d="M54.88,15.47c-1.77,0-2.77-1.41-2.77-3.92s1.2-4.18,3.07-4.18a3.16,3.16,0,0,1,2.26,1.14l-.71.58c-.61-.71-1-.93-1.55-.93-1.37,0-2.12,1.2-2.12,3.39,0,2,.63,3.12,1.82,3.12s1.87-.83,1.9-2.15H55v-.7h2.6v.7A2.65,2.65,0,0,1,54.88,15.47Z"/></symbol></defs><use width="70.83" height="24.04" transform="translate(155.52 11.32)" xlink:href="#a"/><use width="70.83" height="24.04" transform="translate(232.01 94.11)" xlink:href="#b"/><use width="70.83" height="24.04" transform="translate(155.52 94.11)" xlink:href="#c"/><use width="70.83" height="24.04" transform="translate(232.01 52.72)" xlink:href="#d"/><use width="70.83" height="24.04" transform="translate(155.52 52.72)" xlink:href="#e"/><polyline class="i" points="125.84 70.74 137.84 70.74 137.84 106.13 149.14 106.13"/><polygon class="c" points="146.98 108.79 146.54 108.31 148.89 106.13 146.54 103.95 146.98 103.47 149.84 106.13 146.98 108.79"/><polyline class="i" points="125.84 58.74 137.84 58.74 137.84 23.34 149.14 23.34"/><polygon class="c" points="146.98 26 146.54 25.53 148.89 23.35 146.54 21.16 146.98 20.69 149.84 23.35 146.98 26"/><line class="i" x1="125.84" y1="64.74" x2="149.14" y2="64.74"/><polygon class="c" points="146.98 67.39 146.54 66.92 148.89 64.74 146.54 62.55 146.98 62.08 149.84 64.74 146.98 67.39"/><polyline class="j" points="333.45 70.74 322.16 70.74 322.16 106.13 310.16 106.13"/><polygon class="k" points="331.3 68.08 330.86 68.55 333.2 70.74 330.86 72.92 331.3 73.39 334.16 70.74 331.3 68.08"/><polyline class="j" points="333.45 58.74 322.16 58.74 322.16 23.34 232.33 23.34"/><polygon class="k" points="331.3 56.08 330.86 56.55 333.2 58.74 330.86 60.92 331.3 61.4 334.16 58.74 331.3 56.08"/><line class="j" x1="333.45" y1="64.74" x2="310.16" y2="64.74"/><polygon class="k" points="331.3 62.08 330.86 62.55 333.2 64.74 330.86 66.92 331.3 67.39 334.16 64.74 331.3 62.08"/><rect class="k" x="340.16" y="53.04" width="70.18" height="23.39" rx="11.7"/><path class="d" d="M358.28,60.57a37.75,37.75,0,0,1-1,7.79h-.81a23.2,23.2,0,0,1-1.08-3.48,23.55,23.55,0,0,1-1.14,3.48h-.81a45.09,45.09,0,0,1-.84-7.79h.85A36.72,36.72,0,0,0,354,67a20.8,20.8,0,0,0,1-3.21h.86a22,22,0,0,0,1,3.21,33.09,33.09,0,0,0,.61-6.4Z"/><path class="d" d="M363.28,66.16h-2.5l-.6,2.2h-.85l2.05-7.79h1.18l2.2,7.79h-.85Zm-.2-.7-1-3.56h-.13l-1,3.56Z"/><path class="d" d="M370.82,68.36h-4.33v-.7h1.72V61.27h-1.46v-.7h3.7v.7h-1.39v6.39h1.7v0A2.39,2.39,0,0,0,370.82,68.36Z"/><path class="d" d="M377.78,60.57v.7h-2.15v7.09h-.85V61.27h-2.07v-.7Z"/><path class="d" d="M384,68.36h-4.34v-.7h1.73V61.27H380v-.7h3.7v.7h-1.39v6.39H384v0A2.39,2.39,0,0,0,384,68.36Z"/><path class="d" d="M390,68.36l-3.13-5.9v5.9H386V60.57h.86L390,66.32V60.57h.85v7.79Z"/><path class="d" d="M395,68.51c-1.77,0-2.77-1.41-2.77-3.92s1.2-4.18,3.07-4.18a3.14,3.14,0,0,1,2.27,1.15l-.71.57c-.61-.7-1-.92-1.56-.92-1.37,0-2.12,1.2-2.12,3.38s.63,3.12,1.82,3.12a1.93,1.93,0,0,0,1.91-2.15h-1.83v-.7h2.61v.7A2.65,2.65,0,0,1,395,68.51Z"/><use width="70.18" height="23.39" transform="translate(48.65 53.04)" xlink:href="#f"/></svg>