<svg xmlns="http://www.w3.org/2000/svg" xmlns:xlink="http://www.w3.org/1999/xlink" viewBox="0 0 94 36"><defs><style>.a{fill:#d22127;}.b{fill:none;stroke:#d22026;stroke-miterlimit:10;stroke-width:0.65px;}</style><symbol id="a" viewBox="0 0 70.83 24.04"><path class="a" d="M17.48,9.44a36.54,36.54,0,0,1-1.4,3.45h-.86c-.3-.71-1-2.13-1.48-3.45v6.21h-.85V7.85h.87a42.31,42.31,0,0,0,1.85,4.08,44.14,44.14,0,0,0,1.78-4.08h.94v7.8h-.85Z"/><path class="a" d="M24.39,15.65H20.05V15h1.73V8.55H20.31v-.7H24v.7H22.63V15h1.7v0A2.39,2.39,0,0,0,24.39,15.65Z"/><path class="a" d="M31.28,13.53c0,1.53-1.07,2.27-2.72,2.27a2.61,2.61,0,0,1-2.23-1l.59-.55a2,2,0,0,0,1.74.78c1.1,0,1.79-.4,1.81-1.43S29.93,12.3,29,12.13c-1.55-.27-2.58-1.08-2.58-2.32A2.16,2.16,0,0,1,28.74,7.7a2.68,2.68,0,0,1,2.25,1l-.56.53a1.86,1.86,0,0,0-1.58-.77c-1.06,0-1.67.47-1.67,1.29s.62,1.28,1.88,1.53C30.56,11.59,31.28,12.15,31.28,13.53Z"/><path class="a" d="M38,7.85v.7H35.8v7.1H35V8.55H32.87v-.7Z"/><path class="a" d="M43.25,13.45H40.74l-.6,2.2h-.85l2.05-7.8h1.19l2.2,7.8h-.85Zm-.2-.7L42,9.18h-.13l-1,3.57Z"/><path class="a" d="M50.23,15.65l-2.85-3.08-.32.4v2.68h-.85V7.84h.85v3.68l3-3.68h1.13l-3.25,4,3.54,3.8Z"/><path class="a" d="M53.86,14.8h3.5v.85H53V7.85h4.35V8.7h-3.5v2.42h2.9V12h-2.9Z"/><rect class="b" x="0.32" y="0.32" width="70.18" height="23.39"/></symbol></defs><use width="70.83" height="24.04" transform="translate(11.59 5.98)" xlink:href="#a"/></svg>