<svg xmlns="http://www.w3.org/2000/svg" viewBox="0 0 460 215"><defs><style>.a{fill:#2b6a96;}.b,.d,.f,.h,.k,.m,.n,.o{fill:none;stroke-miterlimit:10;}.b{stroke:#2b6997;}.b,.d,.f,.h,.k{stroke-width:0.65px;}.c{fill:#f58420;}.d,.n{stroke:#f58420;}.e{fill:#d22127;}.f,.m{stroke:#d22026;}.g{fill:#199e49;}.h{stroke:#199e49;}.i{fill:#2b6997;}.j{fill:#888;}.k,.o{stroke:#888;}.l{fill:#d22026;}.m,.n,.o{stroke-width:0.75px;}</style></defs><path class="a" d="M62.28,81.32h3.5v.85H61.43v-7.8h4.35v.85h-3.5v2.42h2.9v.85h-2.9Z"/><path class="a" d="M71.8,82.17l-3.14-5.91v5.91h-.85v-7.8h.87l3.12,5.76V74.37h.85v7.8Z"/><path class="a" d="M77.28,82.28v1.33h-.9V82.29c-1.48-.23-2.3-1.64-2.3-4,0-2.61,1-4.05,2.74-4.05s2.76,1.52,2.76,4.05C79.58,80.61,78.74,82,77.28,82.28Zm1.33-4c0-2.38-.56-3.34-1.79-3.33s-1.74,1-1.74,3.33c0,2,.43,3,1.3,3.2V79.52h.9v1.94C78.18,81.23,78.61,80.26,78.61,78.26Z"/><path class="a" d="M85.07,80.08V74.37h.84v5.71a2.15,2.15,0,0,1-2.45,2.24c-1.66,0-2.52-.9-2.52-2.24V74.37h.85v5.71a1.5,1.5,0,0,0,1.67,1.54A1.46,1.46,0,0,0,85.07,80.08Z"/><path class="a" d="M88.68,81.32h3.49v.85H87.83v-7.8h4.34v.85H88.68v2.42h2.9v.85h-2.9Z"/><path class="a" d="M98.27,80.08V74.37h.84v5.71a2.15,2.15,0,0,1-2.45,2.24c-1.66,0-2.52-.9-2.52-2.24V74.37H95v5.71a1.5,1.5,0,0,0,1.67,1.54A1.46,1.46,0,0,0,98.27,80.08Z"/><path class="a" d="M101.88,81.32h3.49v.85H101v-7.8h4.34v.85h-3.49v2.42h2.89v.85h-2.89Z"/><rect class="b" x="48.34" y="66.84" width="70.18" height="23.39"/><path class="c" d="M382.28,160.16v.7h-2.15V168h-.85v-7.09H377.2v-.7Z"/><path class="c" d="M388.51,168h-4.33v-.7h1.73v-6.39h-1.47v-.7h3.71v.7h-1.39v6.39h1.7v0A2.85,2.85,0,0,0,388.51,168Z"/><path class="c" d="M394.8,161.75a35,35,0,0,1-1.39,3.44h-.86c-.3-.71-1-2.13-1.48-3.44V168h-.85v-7.79h.87a42,42,0,0,0,1.85,4.07,41.51,41.51,0,0,0,1.77-4.07h.94V168h-.85Z"/><path class="c" d="M398.19,167.1h3.49V168h-4.34v-7.79h4.34V161h-3.49v2.41h2.89v.85h-2.89Z"/><path class="c" d="M403.39,164c0-2.6,1-4,2.74-4s2.75,1.52,2.75,4-1,4.06-2.75,4.06S403.39,166.66,403.39,164Zm4.53,0c0-2.37-.56-3.33-1.79-3.32s-1.74,1-1.74,3.32.57,3.25,1.74,3.25S407.92,166.35,407.92,164Z"/><path class="c" d="M414.38,165.86v-5.7h.84v5.7a2.15,2.15,0,0,1-2.45,2.24c-1.66,0-2.52-.9-2.52-2.24v-5.7h.85v5.7a1.5,1.5,0,0,0,1.67,1.54A1.46,1.46,0,0,0,414.38,165.86Z"/><path class="c" d="M421.87,160.16v.7h-2.14V168h-.85v-7.09H416.8v-.7Z"/><rect class="d" x="364.45" y="152.63" width="70.18" height="23.39"/><path class="e" d="M223.55,161.75c-.46,1.32-1,2.64-1.4,3.44h-.86c-.3-.71-1-2.13-1.48-3.44V168H219v-7.79h.87a42,42,0,0,0,1.85,4.07,43.8,43.8,0,0,0,1.78-4.07h.94V168h-.85Z"/><path class="e" d="M230.46,168h-4.34v-.7h1.73v-6.39h-1.47v-.7h3.71v.7H228.7v6.39h1.7v0A2.39,2.39,0,0,0,230.46,168Z"/><path class="e" d="M237.35,165.83c0,1.53-1.07,2.27-2.72,2.27a2.61,2.61,0,0,1-2.23-1l.59-.55a2,2,0,0,0,1.74.78c1.1,0,1.79-.4,1.81-1.43s-.54-1.31-1.51-1.48c-1.55-.27-2.58-1.08-2.58-2.31a2.16,2.16,0,0,1,2.36-2.11,2.68,2.68,0,0,1,2.25,1l-.56.53a1.86,1.86,0,0,0-1.58-.77c-1.06,0-1.67.47-1.67,1.29s.62,1.27,1.88,1.52C236.63,163.89,237.35,164.45,237.35,165.83Z"/><path class="e" d="M244,160.16v.7h-2.15V168H241v-7.09h-2.08v-.7Z"/><path class="e" d="M249.32,165.75h-2.51l-.6,2.2h-.85l2-7.79h1.19l2.2,7.79H250Zm-.2-.7-1-3.56H248l-1,3.56Z"/><path class="e" d="M256.3,168l-2.85-3.08-.32.4V168h-.85v-7.8h.85v3.67l3-3.67h1.13l-3.25,4,3.54,3.8Z"/><path class="e" d="M259.93,167.1h3.5V168h-4.35v-7.79h4.35V161h-3.5v2.41h2.9v.85h-2.9Z"/><rect class="f" x="206.4" y="152.63" width="70.18" height="23.39"/><path class="g" d="M66.09,165.83c0,1.53-1.06,2.27-2.71,2.27a2.61,2.61,0,0,1-2.23-1l.59-.55a2,2,0,0,0,1.74.78c1.1,0,1.79-.4,1.81-1.43s-.54-1.31-1.51-1.48c-1.55-.27-2.58-1.08-2.58-2.31A2.16,2.16,0,0,1,63.56,160a2.68,2.68,0,0,1,2.25,1l-.56.53a1.86,1.86,0,0,0-1.58-.77c-1.06,0-1.67.47-1.67,1.29s.62,1.27,1.88,1.52C65.38,163.89,66.09,164.45,66.09,165.83Z"/><path class="g" d="M71.87,165.86v-5.7h.84v5.7a2.15,2.15,0,0,1-2.45,2.24c-1.66,0-2.52-.9-2.52-2.24v-5.7h.85v5.7a1.5,1.5,0,0,0,1.67,1.54A1.46,1.46,0,0,0,71.87,165.86Z"/><path class="g" d="M79.5,166.29a2.75,2.75,0,0,1-2.68,1.81c-1.75,0-2.77-1.55-2.77-3.92S75.2,160,76.82,160a2.66,2.66,0,0,1,2.45,1.68l-.94.27a1.63,1.63,0,0,0-1.51-1.15c-1.11,0-1.82,1.32-1.82,3.38s.66,3.12,1.82,3.12a1.77,1.77,0,0,0,1.72-1.14Z"/><path class="g" d="M86.1,166.29a2.75,2.75,0,0,1-2.68,1.81c-1.75,0-2.77-1.55-2.77-3.92S81.8,160,83.42,160a2.69,2.69,0,0,1,2.46,1.68l-.94.27a1.65,1.65,0,0,0-1.52-1.15c-1.11,0-1.82,1.32-1.82,3.38s.66,3.12,1.82,3.12a1.77,1.77,0,0,0,1.72-1.14Z"/><path class="g" d="M88.68,167.1h3.49V168H87.83v-7.79h4.34V161H88.68v2.41h2.89v.85H88.68Z"/><path class="g" d="M99.09,165.83c0,1.53-1.07,2.27-2.71,2.27a2.61,2.61,0,0,1-2.23-1l.59-.55a2,2,0,0,0,1.74.78c1.09,0,1.78-.4,1.8-1.43s-.54-1.31-1.5-1.48c-1.55-.27-2.58-1.08-2.58-2.31A2.16,2.16,0,0,1,96.56,160a2.67,2.67,0,0,1,2.24,1l-.56.53a1.85,1.85,0,0,0-1.57-.77c-1.06,0-1.67.47-1.67,1.29s.62,1.27,1.88,1.52C98.37,163.89,99.09,164.45,99.09,165.83Z"/><path class="g" d="M105.69,165.83c0,1.53-1.07,2.27-2.71,2.27a2.61,2.61,0,0,1-2.23-1l.59-.55a2,2,0,0,0,1.74.78c1.09,0,1.78-.4,1.8-1.43s-.54-1.31-1.5-1.48c-1.55-.27-2.58-1.08-2.58-2.31a2.16,2.16,0,0,1,2.36-2.11,2.67,2.67,0,0,1,2.24,1l-.56.53a1.84,1.84,0,0,0-1.57-.77c-1.06,0-1.67.47-1.67,1.29s.62,1.27,1.88,1.52C105,163.89,105.69,164.45,105.69,165.83Z"/><rect class="h" x="48.34" y="152.63" width="70.18" height="23.39"/><path class="c" d="M298,164c0-2.6,1-4,2.74-4s2.76,1.52,2.76,4-1,4.06-2.76,4.06S298,166.66,298,164Zm4.53,0c0-2.37-.56-3.33-1.79-3.32s-1.74,1-1.74,3.32.57,3.25,1.74,3.25S302.49,166.35,302.49,164Z"/><path class="c" d="M306.06,164.83V168h-.85v-7.79h4.35V161h-3.5v3H309v.85Z"/><path class="c" d="M312.66,164.83V168h-.85v-7.79h4.35V161h-3.5v3h2.9v.85Z"/><path class="c" d="M318.28,168v-7.79h.85v7.09h3.63v.7Z"/><path class="c" d="M329.29,168H325v-.7h1.73v-6.39h-1.47v-.7h3.71v.7h-1.39v6.39h1.7v0A2.39,2.39,0,0,0,329.29,168Z"/><path class="c" d="M335.28,168,332.14,162V168h-.85v-7.79h.87l3.12,5.75v-5.75h.85V168Z"/><path class="c" d="M339,167.1h3.5V168h-4.35v-7.79h4.35V161H339v2.41h2.9v.85H339Z"/><rect class="d" x="285.42" y="152.63" width="70.18" height="23.39"/><path class="e" d="M141.4,164.83V168h-.84v-7.79h4.34V161h-3.5v3h2.9v.85Z"/><path class="e" d="M150.49,165.75H148l-.59,2.2h-.85l2-7.79h1.19L152,168h-.85Zm-.2-.7-1-3.56h-.13l-1,3.56Z"/><path class="e" d="M158,168h-4.34v-.7h1.73v-6.39H154v-.7h3.7v.7h-1.39v6.39H158v0A2.39,2.39,0,0,0,158,168Z"/><path class="e" d="M160.22,168v-7.79h.85v7.09h3.63v.7Z"/><path class="e" d="M170.69,165.86v-5.7h.85v5.7a2.16,2.16,0,0,1-2.46,2.24c-1.66,0-2.52-.9-2.52-2.24v-5.7h.85v5.7a1.5,1.5,0,0,0,1.67,1.54A1.46,1.46,0,0,0,170.69,165.86Z"/><path class="e" d="M177.21,168c0-.53-1-2-1.66-3.14l-.55,0h-.9V168h-.85v-7.79h2.35a2.27,2.27,0,0,1,2.45,2.38,2,2,0,0,1-1.58,2.11c.67,1.19,1.74,2.74,1.74,3.3Zm-1.71-4c1.15,0,1.74-.49,1.74-1.44A1.44,1.44,0,0,0,175.6,161h-1.5v3Z"/><path class="e" d="M180.9,167.1h3.5V168h-4.35v-7.79h4.35V161h-3.5v2.41h2.9v.85h-2.9Z"/><rect class="f" x="127.37" y="152.63" width="70.18" height="23.39"/><path class="a" d="M65.19,125.06c0-.53-1-2-1.66-3.14l-.55,0h-.9v3.12h-.85v-7.8h2.35A2.27,2.27,0,0,1,66,119.64a2,2,0,0,1-1.58,2.12c.67,1.19,1.74,2.74,1.74,3.3Zm-1.71-4c1.15,0,1.74-.49,1.74-1.45a1.44,1.44,0,0,0-1.64-1.53h-1.5v3Z"/><path class="a" d="M68.88,124.21h3.5v.85H68v-7.8h4.35v.85h-3.5v2.42h2.9v.85h-2.9Z"/><path class="a" d="M77.28,125.17v1.34h-.9v-1.33c-1.48-.23-2.3-1.64-2.3-4,0-2.61,1-4.05,2.74-4.05s2.76,1.52,2.76,4.05C79.58,123.5,78.74,124.93,77.28,125.17Zm1.33-4c0-2.38-.56-3.34-1.79-3.33s-1.74,1-1.74,3.33c0,2,.43,3,1.3,3.2v-1.94h.9v1.94C78.18,124.12,78.61,123.15,78.61,121.15Z"/><path class="a" d="M85.07,123v-5.71h.84V123a2.15,2.15,0,0,1-2.45,2.24c-1.66,0-2.52-.9-2.52-2.24v-5.71h.85V123a1.5,1.5,0,0,0,1.67,1.54A1.46,1.46,0,0,0,85.07,123Z"/><path class="a" d="M88.68,124.21h3.49v.85H87.83v-7.8h4.34v.85H88.68v2.42h2.9v.85h-2.9Z"/><path class="a" d="M99.09,122.94c0,1.53-1.06,2.27-2.71,2.27a2.61,2.61,0,0,1-2.23-1l.59-.55a2,2,0,0,0,1.74.78c1.1,0,1.79-.4,1.81-1.43s-.54-1.31-1.51-1.48c-1.55-.27-2.58-1.08-2.58-2.32a2.16,2.16,0,0,1,2.36-2.11,2.68,2.68,0,0,1,2.25,1l-.56.53a1.86,1.86,0,0,0-1.58-.77c-1.06,0-1.67.47-1.67,1.29s.62,1.28,1.88,1.53C98.38,121,99.09,121.56,99.09,122.94Z"/><path class="a" d="M105.76,117.26v.7h-2.14v7.1h-.85V118h-2.08v-.7Z"/><rect class="b" x="48.34" y="109.74" width="70.18" height="23.39"/><polygon class="i" points="83.43 105.34 79.46 101.38 79.46 100.26 83.03 103.83 83.03 99.41 83.03 94.09 83.83 94.09 83.83 99.41 83.83 103.83 87.39 100.26 87.39 101.38 83.43 105.34"/><path class="j" d="M65.81,39.27H61.47v-.7H63.2V32.18H61.73v-.7h3.71v.7H64.05v6.39h1.7v0A2.39,2.39,0,0,0,65.81,39.27Z"/><path class="j" d="M71.8,39.27l-3.14-5.9v5.9h-.85V31.48h.87l3.12,5.75V31.48h.85v7.79Z"/><path class="j" d="M79,39.27H74.67v-.7H76.4V32.18H74.93v-.7h3.71v.7H77.25v6.39H79v0A2.39,2.39,0,0,0,79,39.27Z"/><path class="j" d="M86,31.48v.7H83.82v7.09H83V32.18H80.89v-.7Z"/><path class="j" d="M92.21,39.27H87.87v-.7H89.6V32.18H88.13v-.7h3.71v.7H90.45v6.39h1.7v0A2.39,2.39,0,0,0,92.21,39.27Z"/><path class="j" d="M97.87,37.07H95.36l-.6,2.2h-.85l2-7.79h1.19l2.19,7.79H98.5Zm-.2-.7-1-3.56h-.13l-1,3.56Z"/><path class="j" d="M101,39.27V31.48h.85v7.09h3.62v.7Z"/><rect class="k" x="48.34" y="23.95" width="70.18" height="23.39"/><polygon class="g" points="83.43 148.24 79.46 144.27 79.46 143.15 83.03 146.72 83.03 142.3 83.03 136.98 83.83 136.98 83.83 142.3 83.83 146.72 87.39 143.15 87.39 144.27 83.43 148.24"/><polygon class="l" points="241.48 148.24 237.51 144.27 237.51 143.15 241.09 146.72 241.09 142.3 241.09 125.06 241.88 125.06 241.88 142.3 241.88 146.72 245.45 143.15 245.45 144.27 241.48 148.24"/><polygon class="c" points="397.82 148.24 393.85 144.27 393.85 143.15 397.42 146.72 397.42 142.3 397.42 115.16 398.21 115.16 398.21 142.3 398.21 146.72 401.78 143.15 401.78 144.27 397.82 148.24"/><polygon class="j" points="83.43 62.45 79.46 58.48 79.46 57.36 83.03 60.93 83.03 56.52 83.03 51.2 83.83 51.2 83.83 56.52 83.83 60.93 87.39 57.36 87.39 58.48 83.43 62.45"/><line class="m" x1="124.75" y1="125.06" x2="241.48" y2="125.06"/><line class="n" x1="124.75" y1="115.16" x2="397.82" y2="115.16"/><polygon class="j" points="42.49 78.54 38.52 82.51 37.4 82.51 40.97 78.94 36.55 78.94 25.38 78.94 25.38 78.14 36.55 78.14 40.97 78.14 37.4 74.57 38.52 74.57 42.49 78.54"/><line class="o" x1="25.37" y1="78.54" x2="25.37" y2="191.05"/><line class="o" x1="162.46" y1="180.67" x2="162.46" y2="191.05"/><line class="o" x1="241.48" y1="180.67" x2="241.48" y2="191.05"/><line class="o" x1="397.82" y1="191.05" x2="25.37" y2="191.05"/><line class="o" x1="83.43" y1="180.67" x2="83.43" y2="191.05"/><polygon class="l" points="162.46 148.24 158.49 144.27 158.49 143.15 162.06 146.72 162.06 142.3 162.06 125.06 162.85 125.06 162.85 142.3 162.85 146.72 166.42 143.15 166.42 144.27 162.46 148.24"/><polygon class="c" points="320.51 148.24 316.54 144.27 316.54 143.15 320.11 146.72 320.11 142.3 320.11 115.16 320.91 115.16 320.91 142.3 320.91 146.72 324.48 143.15 324.48 144.27 320.51 148.24"/><line class="o" x1="320.51" y1="180.42" x2="320.51" y2="190.79"/><line class="o" x1="397.82" y1="180.67" x2="397.82" y2="191.05"/></svg>