<svg xmlns="http://www.w3.org/2000/svg" viewBox="0 0 100 100"><defs><style>.a{fill:#888;}.b{fill:#4054bd;}</style></defs><path class="a" d="M64,67.28a5.19,5.19,0,0,0-.55-10.35h-.19a5.17,5.17,0,0,0-5,5.36,5.29,5.29,0,0,0,1.48,3.42C56.62,71.9,51.81,76.43,44.6,80.22a25,25,0,0,1-15.07,2.87,12.85,12.85,0,0,1-9.43-5.45,13.59,13.59,0,0,1-.74-14.33,21.77,21.77,0,0,1,6.29-7.4,47.39,47.39,0,0,1-1.2-4.71C11,60.9,12.43,74,16.5,80.22c3.05,4.63,9.24,7.49,16.08,7.49a22.85,22.85,0,0,0,5.55-.64A35.49,35.49,0,0,0,64,67.28Z"/><path class="a" d="M80.28,55.82c-7-8.23-17.38-12.76-29.21-12.76H49.59a5.08,5.08,0,0,0-4.53-2.77h-.18a5.18,5.18,0,0,0,.18,10.35h.19a5.2,5.2,0,0,0,4.53-3.14h1.66a35.19,35.19,0,0,1,19.69,6,24.76,24.76,0,0,1,9.8,11.83,12.84,12.84,0,0,1-.18,10.91,13.58,13.58,0,0,1-12.67,7.58A23.68,23.68,0,0,1,59,81.89c-1,.92-2.86,2.4-4.16,3.33a28.52,28.52,0,0,0,11.93,2.86c8.87,0,15.43-4.9,17.93-9.8C87.4,72.92,87.22,63.68,80.28,55.82Z"/><path class="a" d="M33.32,68.85a5.19,5.19,0,0,0,5.18,5h.18a5.18,5.18,0,0,0-.18-10.36h-.19a1.58,1.58,0,0,0-.64.09,33.81,33.81,0,0,1-4.81-20.52,24.84,24.84,0,0,1,5.45-14.33c2.68-3.42,7.86-5.08,11.37-5.17,9.8-.19,14,12,14.24,16.91,1.2.28,3.24.93,4.62,1.39-1.11-15-10.35-22.74-19.23-22.74-8.32,0-16,6-19,14.88C26,45.83,28.79,57.21,34,66.17A4.2,4.2,0,0,0,33.32,68.85Z"/><path class="b" d="M78.86,14.47c-7.74-3-18-4.6-28.86-4.6-23.83,0-41.81,7.42-41.81,17.26V69.24A9.14,9.14,0,0,0,10.45,75a24.27,24.27,0,0,1-.24-8.59,25,25,0,0,1,2-6.51V55.82c.48.42,1,.83,1.57,1.23a29.48,29.48,0,0,1,2.36-3.25c-2.53-1.79-3.93-3.73-3.93-5.6V34.75c2.88,2.54,7.18,4.69,12.55,6.32a37,37,0,0,1,.73-4c-8.32-2.61-13.28-6.38-13.28-9.92,0-6.27,15.53-13.26,37.81-13.26,10.39,0,20.14,1.54,27.43,4.34,6.5,2.49,10.38,5.82,10.38,8.92,0,3.91-6,8.1-16,10.7a37.65,37.65,0,0,1,.47,3.75l0,.3c6.75-1.69,12.13-4.15,15.51-7.13V48.2c0,1.94-1.49,3.94-4.18,5.78A32.54,32.54,0,0,1,86,57.22a22.16,22.16,0,0,0,1.81-1.4v4.75a24.31,24.31,0,0,1,1.92,14.25,9.09,9.09,0,0,0,2.08-5.58V27.13C91.81,22.17,87.21,17.67,78.86,14.47Z"/></svg>