<svg xmlns="http://www.w3.org/2000/svg" xmlns:xlink="http://www.w3.org/1999/xlink" viewBox="0 0 94 36"><defs><style>.a{fill:#2b6a96;}.b{fill:none;stroke:#2b6997;stroke-miterlimit:10;stroke-width:0.65px;}</style><symbol id="a" viewBox="0 0 70.83 24.04"><path class="a" d="M17.17,15.65c0-.53-1-2-1.66-3.14l-.55,0h-.9v3.12h-.85V7.85h2.35A2.27,2.27,0,0,1,18,10.23a2,2,0,0,1-1.58,2.12c.67,1.19,1.74,2.74,1.74,3.3Zm-1.71-4c1.15,0,1.74-.49,1.74-1.45A1.44,1.44,0,0,0,15.56,8.7h-1.5v3Z"/><path class="a" d="M20.86,14.8h3.5v.85H20V7.85h4.35V8.7h-3.5v2.42h2.9V12h-2.9Z"/><path class="a" d="M29.26,15.76V17.1h-.9V15.77c-1.48-.23-2.3-1.64-2.3-4,0-2.61,1-4,2.74-4s2.76,1.52,2.76,4.05C31.56,14.09,30.72,15.52,29.26,15.76Zm1.33-4c0-2.38-.56-3.34-1.79-3.33s-1.74,1-1.74,3.33c0,2,.43,3,1.3,3.2V13h.9v1.94C30.16,14.71,30.59,13.74,30.59,11.74Z"/><path class="a" d="M37.05,13.56V7.85h.85v5.71a2.16,2.16,0,0,1-2.46,2.24c-1.66,0-2.52-.9-2.52-2.24V7.85h.85v5.71a1.5,1.5,0,0,0,1.67,1.54A1.46,1.46,0,0,0,37.05,13.56Z"/><path class="a" d="M40.66,14.8h3.5v.85H39.81V7.85h4.35V8.7h-3.5v2.42h2.9V12h-2.9Z"/><path class="a" d="M51.08,13.53c0,1.53-1.07,2.27-2.72,2.27a2.61,2.61,0,0,1-2.23-1l.59-.55a2,2,0,0,0,1.74.78c1.1,0,1.79-.4,1.81-1.43s-.54-1.31-1.51-1.48c-1.55-.27-2.58-1.08-2.58-2.32A2.16,2.16,0,0,1,48.54,7.7a2.68,2.68,0,0,1,2.25,1l-.56.53a1.86,1.86,0,0,0-1.58-.77C47.59,8.48,47,9,47,9.77s.62,1.28,1.88,1.53C50.36,11.59,51.08,12.15,51.08,13.53Z"/><path class="a" d="M57.75,7.85v.7H55.6v7.1h-.85V8.55H52.67v-.7Z"/><rect class="b" x="0.32" y="0.32" width="70.18" height="23.39"/></symbol></defs><use width="70.83" height="24.04" transform="translate(11.59 5.98)" xlink:href="#a"/></svg>