<svg xmlns="http://www.w3.org/2000/svg" xmlns:xlink="http://www.w3.org/1999/xlink" viewBox="0 0 94 36"><defs><style>.a{fill:#199e49;}.b{fill:none;stroke:#199e49;stroke-miterlimit:10;stroke-width:0.65px;}</style><symbol id="a" viewBox="0 0 70.83 24.04"><path class="a" d="M18.08,13.53c0,1.53-1.07,2.27-2.72,2.27a2.61,2.61,0,0,1-2.23-1l.59-.55a2,2,0,0,0,1.74.78c1.1,0,1.79-.4,1.81-1.43s-.54-1.31-1.51-1.48c-1.55-.27-2.58-1.08-2.58-2.32A2.16,2.16,0,0,1,15.54,7.7a2.68,2.68,0,0,1,2.25,1l-.56.53a1.86,1.86,0,0,0-1.58-.77C14.59,8.48,14,9,14,9.77s.62,1.28,1.88,1.53C17.36,11.59,18.08,12.15,18.08,13.53Z"/><path class="a" d="M23.85,13.56V7.85h.85v5.71a2.16,2.16,0,0,1-2.46,2.24c-1.66,0-2.52-.9-2.52-2.24V7.85h.85v5.71a1.5,1.5,0,0,0,1.67,1.54A1.46,1.46,0,0,0,23.85,13.56Z"/><path class="a" d="M31.49,14A2.76,2.76,0,0,1,28.8,15.8c-1.75,0-2.77-1.55-2.77-3.92s1.15-4.19,2.77-4.19a2.68,2.68,0,0,1,2.46,1.68l-.94.27A1.65,1.65,0,0,0,28.8,8.49C27.69,8.49,27,9.82,27,11.88S27.64,15,28.8,15a1.77,1.77,0,0,0,1.72-1.14Z"/><path class="a" d="M38.09,14A2.76,2.76,0,0,1,35.4,15.8c-1.75,0-2.77-1.55-2.77-3.92s1.15-4.19,2.77-4.19a2.68,2.68,0,0,1,2.46,1.68l-.94.27A1.65,1.65,0,0,0,35.4,8.49c-1.11,0-1.82,1.33-1.82,3.39S34.24,15,35.4,15a1.77,1.77,0,0,0,1.72-1.14Z"/><path class="a" d="M40.66,14.8h3.5v.85H39.81V7.85h4.35V8.7h-3.5v2.42h2.9V12h-2.9Z"/><path class="a" d="M51.08,13.53c0,1.53-1.07,2.27-2.72,2.27a2.61,2.61,0,0,1-2.23-1l.59-.55a2,2,0,0,0,1.74.78c1.1,0,1.79-.4,1.81-1.43s-.54-1.31-1.51-1.48c-1.55-.27-2.58-1.08-2.58-2.32A2.16,2.16,0,0,1,48.54,7.7a2.68,2.68,0,0,1,2.25,1l-.56.53a1.86,1.86,0,0,0-1.58-.77C47.59,8.48,47,9,47,9.77s.62,1.28,1.88,1.53C50.36,11.59,51.08,12.15,51.08,13.53Z"/><path class="a" d="M57.68,13.53c0,1.53-1.07,2.27-2.72,2.27a2.61,2.61,0,0,1-2.23-1l.59-.55a2,2,0,0,0,1.74.78c1.1,0,1.79-.4,1.81-1.43s-.54-1.31-1.51-1.48c-1.55-.27-2.58-1.08-2.58-2.32A2.16,2.16,0,0,1,55.14,7.7a2.68,2.68,0,0,1,2.25,1l-.56.53a1.86,1.86,0,0,0-1.58-.77c-1.06,0-1.67.47-1.67,1.29s.62,1.28,1.88,1.53C57,11.59,57.68,12.15,57.68,13.53Z"/><rect class="b" x="0.32" y="0.32" width="70.18" height="23.39"/></symbol></defs><use width="70.83" height="24.04" transform="translate(11.59 5.98)" xlink:href="#a"/></svg>