<svg xmlns="http://www.w3.org/2000/svg" xmlns:xlink="http://www.w3.org/1999/xlink" viewBox="0 0 94 36"><defs><style>.a{fill:#f58420;}.b{fill:none;stroke:#f58420;stroke-miterlimit:10;stroke-width:0.65px;}</style><symbol id="a" viewBox="0 0 70.83 24.04"><path class="a" d="M18.15,7.85v.7H16v7.1h-.85V8.55H13.07v-.7Z"/><path class="a" d="M24.39,15.65H20.05V15h1.73V8.55H20.31v-.7H24v.7H22.63V15h1.7v0A2.39,2.39,0,0,0,24.39,15.65Z"/><path class="a" d="M30.68,9.44a36.54,36.54,0,0,1-1.4,3.45h-.86c-.3-.71-1-2.13-1.48-3.45v6.21h-.85V7.85H27a42.31,42.31,0,0,0,1.85,4.08,44.14,44.14,0,0,0,1.78-4.08h.94v7.8h-.85Z"/><path class="a" d="M34.06,14.8h3.5v.85H33.21V7.85h4.35V8.7h-3.5v2.42H37V12h-2.9Z"/><path class="a" d="M39.26,11.74c0-2.61,1-4,2.74-4s2.76,1.52,2.76,4.05-1,4.06-2.76,4.06S39.26,14.36,39.26,11.74Zm4.53,0c0-2.38-.56-3.34-1.79-3.33s-1.74,1-1.74,3.33S40.83,15,42,15,43.79,14.05,43.79,11.74Z"/><path class="a" d="M50.25,13.56V7.85h.85v5.71a2.16,2.16,0,0,1-2.46,2.24c-1.66,0-2.52-.9-2.52-2.24V7.85H47v5.71a1.5,1.5,0,0,0,1.67,1.54A1.46,1.46,0,0,0,50.25,13.56Z"/><path class="a" d="M57.75,7.85v.7H55.6v7.1h-.85V8.55H52.67v-.7Z"/><rect class="b" x="0.32" y="0.32" width="70.18" height="23.39"/></symbol></defs><use width="70.83" height="24.04" transform="translate(11.59 5.98)" xlink:href="#a"/></svg>