<svg xmlns="http://www.w3.org/2000/svg" xmlns:xlink="http://www.w3.org/1999/xlink" viewBox="0 0 94 36"><defs><style>.a{fill:#888;}.b{fill:#fff;}</style><symbol id="a" viewBox="0 0 70.17 23.39"><rect class="a" width="70.18" height="23.39" rx="11.7"/><path class="b" d="M18.13,7.53a37.75,37.75,0,0,1-1,7.79h-.81a23.2,23.2,0,0,1-1.08-3.48,23.61,23.61,0,0,1-1.15,3.48h-.81a45.09,45.09,0,0,1-.84-7.79h.85a35.83,35.83,0,0,0,.52,6.4,22,22,0,0,0,1-3.21h.86a22,22,0,0,0,1,3.21,33.17,33.17,0,0,0,.61-6.4Z"/><path class="b" d="M23.13,13.12H20.62l-.6,2.2h-.85l2-7.79h1.19l2.2,7.79h-.85Zm-.2-.7-1-3.57h-.13l-1,3.57Z"/><path class="b" d="M30.67,15.32H26.33v-.7h1.73V8.22H26.59V7.53H30.3v.69H28.91v6.4h1.7v0A2.39,2.39,0,0,0,30.67,15.32Z"/><path class="b" d="M37.62,7.53v.69H35.48v7.1h-.85V8.22H32.55V7.53Z"/><path class="b" d="M43.87,15.32H39.53v-.7h1.73V8.22H39.79V7.53H43.5v.69H42.11v6.4h1.7v0A2.39,2.39,0,0,0,43.87,15.32Z"/><path class="b" d="M49.86,15.32,46.72,9.41v5.91h-.85V7.53h.87l3.12,5.75V7.53h.84v7.79Z"/><path class="b" d="M54.88,15.47c-1.77,0-2.77-1.41-2.77-3.92s1.2-4.18,3.07-4.18a3.13,3.13,0,0,1,2.26,1.14l-.71.58c-.6-.71-1-.93-1.55-.93-1.37,0-2.12,1.2-2.12,3.39,0,2,.63,3.12,1.82,3.12s1.87-.83,1.9-2.15H55v-.7h2.6v.7A2.65,2.65,0,0,1,54.88,15.47Z"/></symbol></defs><use width="70.18" height="23.39" transform="translate(11.91 6.3)" xlink:href="#a"/></svg>