<svg xmlns="http://www.w3.org/2000/svg" viewBox="0 0 271.7 200.23"><defs><style>.a{fill:#2b6a96;}.b,.d,.f,.h,.k,.m,.n,.o{fill:none;stroke-miterlimit:10;}.b{stroke:#2b6997;}.b,.d,.f,.h,.k{stroke-width:0.65px;}.c{fill:#f58420;}.d,.n{stroke:#f58420;}.e{fill:#d22127;}.f,.m{stroke:#d22026;}.g{fill:#199e49;}.h{stroke:#199e49;}.i{fill:#2b6997;}.j{fill:#231f20;}.k,.o{stroke:#231f20;}.l{fill:#d22026;}.m,.n,.o{stroke-width:0.75px;}</style></defs><path class="a" d="M116.51,92.76H120v.85h-4.35V85.82H120v.85h-3.5v2.42h2.9v.85h-2.9Z" transform="translate(-79.23 -35.08)"/><path class="a" d="M126,93.61l-3.14-5.9v5.9H122V85.82h.87L126,91.58V85.82h.85v7.79Z" transform="translate(-79.23 -35.08)"/><path class="a" d="M131.51,93.72v1.34h-.9V93.73c-1.48-.23-2.3-1.63-2.3-4,0-2.61,1-4,2.74-4s2.76,1.52,2.76,4C133.81,92.06,133,93.48,131.51,93.72Zm1.33-4c0-2.38-.56-3.34-1.79-3.33s-1.74,1-1.74,3.33c0,2,.43,3,1.3,3.19V91h.9V92.9C132.41,92.67,132.84,91.71,132.84,89.71Z" transform="translate(-79.23 -35.08)"/><path class="a" d="M139.3,91.53V85.82h.85v5.71a2.16,2.16,0,0,1-2.46,2.23c-1.66,0-2.52-.9-2.52-2.23V85.82H136v5.71a1.49,1.49,0,0,0,1.67,1.53A1.46,1.46,0,0,0,139.3,91.53Z" transform="translate(-79.23 -35.08)"/><path class="a" d="M142.91,92.76h3.5v.85h-4.35V85.82h4.35v.85h-3.5v2.42h2.9v.85h-2.9Z" transform="translate(-79.23 -35.08)"/><path class="a" d="M152.5,91.53V85.82h.85v5.71a2.16,2.16,0,0,1-2.46,2.23c-1.66,0-2.52-.9-2.52-2.23V85.82h.85v5.71a1.49,1.49,0,0,0,1.67,1.53A1.46,1.46,0,0,0,152.5,91.53Z" transform="translate(-79.23 -35.08)"/><path class="a" d="M156.11,92.76h3.5v.85h-4.35V85.82h4.35v.85h-3.5v2.42H159v.85h-2.9Z" transform="translate(-79.23 -35.08)"/><rect class="b" x="23.34" y="43.22" width="70.18" height="23.39"/><path class="c" d="M298.25,202.8v.7h-2.14v7.1h-.85v-7.1h-2.08v-.7Z" transform="translate(-79.23 -35.08)"/><path class="c" d="M304.49,210.6h-4.33v-.7h1.73v-6.4h-1.47v-.7h3.7v.7h-1.38v6.4h1.69v0A2.39,2.39,0,0,0,304.49,210.6Z" transform="translate(-79.23 -35.08)"/><path class="c" d="M310.78,204.39a34.29,34.29,0,0,1-1.39,3.45h-.86c-.3-.71-1-2.13-1.48-3.45v6.21h-.85v-7.8h.87a42.31,42.31,0,0,0,1.85,4.08,41.82,41.82,0,0,0,1.77-4.08h.94v7.8h-.85Z" transform="translate(-79.23 -35.08)"/><path class="c" d="M314.17,209.75h3.49v.85h-4.34v-7.8h4.34v.85h-3.49v2.42h2.89v.85h-2.89Z" transform="translate(-79.23 -35.08)"/><path class="c" d="M319.37,206.69c0-2.61,1-4.05,2.74-4.05s2.75,1.52,2.75,4.05-1,4.06-2.75,4.06S319.37,209.31,319.37,206.69Zm4.52,0c0-2.38-.56-3.34-1.78-3.33s-1.74,1-1.74,3.33.57,3.25,1.74,3.25S323.89,209,323.89,206.69Z" transform="translate(-79.23 -35.08)"/><path class="c" d="M330.35,208.51V202.8h.85v5.71a2.15,2.15,0,0,1-2.45,2.24c-1.66,0-2.52-.9-2.52-2.24V202.8h.85v5.71a1.5,1.5,0,0,0,1.67,1.54A1.46,1.46,0,0,0,330.35,208.51Z" transform="translate(-79.23 -35.08)"/><path class="c" d="M337.85,202.8v.7h-2.14v7.1h-.85v-7.1h-2.08v-.7Z" transform="translate(-79.23 -35.08)"/><rect class="d" x="201.2" y="160.2" width="70.18" height="23.39"/><path class="e" d="M208.66,204.39a36.54,36.54,0,0,1-1.4,3.45h-.86c-.3-.71-1-2.13-1.48-3.45v6.21h-.85v-7.8h.87a42.31,42.31,0,0,0,1.85,4.08,44.14,44.14,0,0,0,1.78-4.08h.94v7.8h-.85Z" transform="translate(-79.23 -35.08)"/><path class="e" d="M215.57,210.6h-4.34v-.7H213v-6.4h-1.47v-.7h3.71v.7h-1.39v6.4h1.7v0A2.39,2.39,0,0,0,215.57,210.6Z" transform="translate(-79.23 -35.08)"/><path class="e" d="M222.46,208.48c0,1.53-1.07,2.27-2.72,2.27a2.61,2.61,0,0,1-2.23-1l.59-.55a2,2,0,0,0,1.74.78c1.1,0,1.79-.4,1.81-1.43s-.54-1.31-1.51-1.48c-1.55-.27-2.58-1.08-2.58-2.32a2.16,2.16,0,0,1,2.36-2.11,2.68,2.68,0,0,1,2.25,1l-.56.53a1.86,1.86,0,0,0-1.58-.77c-1.06,0-1.67.47-1.67,1.29s.62,1.28,1.88,1.53C221.74,206.54,222.46,207.1,222.46,208.48Z" transform="translate(-79.23 -35.08)"/><path class="e" d="M229.13,202.8v.7H227v7.1h-.85v-7.1h-2.08v-.7Z" transform="translate(-79.23 -35.08)"/><path class="e" d="M234.43,208.4h-2.51l-.6,2.2h-.85l2.05-7.8h1.19l2.2,7.8h-.85Zm-.2-.7-1-3.57h-.13l-1,3.57Z" transform="translate(-79.23 -35.08)"/><path class="e" d="M241.41,210.6l-2.85-3.08-.32.4v2.68h-.85v-7.81h.85v3.68l3-3.68h1.13l-3.25,4,3.54,3.8Z" transform="translate(-79.23 -35.08)"/><path class="e" d="M245,209.75h3.5v.85h-4.35v-7.8h4.35v.85H245v2.42h2.9v.85H245Z" transform="translate(-79.23 -35.08)"/><rect class="f" x="112.27" y="160.2" width="70.18" height="23.39"/><path class="g" d="M120.33,177.28c0,1.53-1.07,2.27-2.72,2.27a2.61,2.61,0,0,1-2.23-1L116,178a2,2,0,0,0,1.74.78c1.1,0,1.79-.4,1.81-1.43s-.54-1.31-1.51-1.48c-1.55-.27-2.58-1.08-2.58-2.32a2.16,2.16,0,0,1,2.36-2.11,2.68,2.68,0,0,1,2.25,1l-.56.53a1.86,1.86,0,0,0-1.58-.77c-1.06,0-1.67.47-1.67,1.29s.62,1.28,1.88,1.53C119.61,175.34,120.33,175.9,120.33,177.28Z" transform="translate(-79.23 -35.08)"/><path class="g" d="M126.1,177.31V171.6H127v5.71a2.16,2.16,0,0,1-2.46,2.24c-1.66,0-2.52-.9-2.52-2.24V171.6h.85v5.71a1.5,1.5,0,0,0,1.67,1.54A1.46,1.46,0,0,0,126.1,177.31Z" transform="translate(-79.23 -35.08)"/><path class="g" d="M133.74,177.74a2.76,2.76,0,0,1-2.69,1.81c-1.75,0-2.77-1.55-2.77-3.92s1.15-4.19,2.77-4.19a2.68,2.68,0,0,1,2.46,1.68l-.94.27a1.65,1.65,0,0,0-1.52-1.15c-1.11,0-1.82,1.33-1.82,3.39s.66,3.12,1.82,3.12a1.77,1.77,0,0,0,1.72-1.14Z" transform="translate(-79.23 -35.08)"/><path class="g" d="M140.34,177.74a2.76,2.76,0,0,1-2.69,1.81c-1.75,0-2.77-1.55-2.77-3.92s1.15-4.19,2.77-4.19a2.68,2.68,0,0,1,2.46,1.68l-.94.27a1.65,1.65,0,0,0-1.52-1.15c-1.11,0-1.82,1.33-1.82,3.39s.66,3.12,1.82,3.12a1.77,1.77,0,0,0,1.72-1.14Z" transform="translate(-79.23 -35.08)"/><path class="g" d="M142.91,178.55h3.5v.85h-4.35v-7.8h4.35v.85h-3.5v2.42h2.9v.85h-2.9Z" transform="translate(-79.23 -35.08)"/><path class="g" d="M153.33,177.28c0,1.53-1.07,2.27-2.72,2.27a2.61,2.61,0,0,1-2.23-1L149,178a2,2,0,0,0,1.74.78c1.1,0,1.79-.4,1.81-1.43s-.54-1.31-1.51-1.48c-1.55-.27-2.58-1.08-2.58-2.32a2.16,2.16,0,0,1,2.36-2.11,2.68,2.68,0,0,1,2.25,1l-.56.53a1.86,1.86,0,0,0-1.58-.77c-1.06,0-1.67.47-1.67,1.29s.62,1.28,1.88,1.53C152.61,175.34,153.33,175.9,153.33,177.28Z" transform="translate(-79.23 -35.08)"/><path class="g" d="M159.93,177.28c0,1.53-1.07,2.27-2.72,2.27a2.61,2.61,0,0,1-2.23-1l.59-.55a2,2,0,0,0,1.74.78c1.1,0,1.79-.4,1.81-1.43s-.54-1.31-1.51-1.48c-1.55-.27-2.58-1.08-2.58-2.32a2.16,2.16,0,0,1,2.36-2.11,2.68,2.68,0,0,1,2.25,1l-.56.53a1.86,1.86,0,0,0-1.58-.77c-1.06,0-1.67.47-1.67,1.29s.62,1.28,1.88,1.53C159.21,175.34,159.93,175.9,159.93,177.28Z" transform="translate(-79.23 -35.08)"/><rect class="h" x="23.34" y="129" width="70.18" height="23.39"/><path class="c" d="M293,175.49c0-2.61,1-4.05,2.74-4.05s2.75,1.52,2.75,4.05-1,4.06-2.75,4.06S293,178.11,293,175.49Zm4.53,0c0-2.38-.56-3.34-1.79-3.33s-1.74,1-1.74,3.33.57,3.25,1.74,3.25S297.5,177.8,297.5,175.49Z" transform="translate(-79.23 -35.08)"/><path class="c" d="M301.07,176.28v3.12h-.85v-7.8h4.34v.85h-3.49v3H304v.85Z" transform="translate(-79.23 -35.08)"/><path class="c" d="M307.67,176.28v3.12h-.85v-7.8h4.34v.85h-3.49v3h2.89v.85Z" transform="translate(-79.23 -35.08)"/><path class="c" d="M313.29,179.4v-7.8h.85v7.1h3.62v.7Z" transform="translate(-79.23 -35.08)"/><path class="c" d="M324.29,179.4H320v-.7h1.73v-6.4h-1.47v-.7h3.7v.7h-1.38v6.4h1.69v0A2.39,2.39,0,0,0,324.29,179.4Z" transform="translate(-79.23 -35.08)"/><path class="c" d="M330.28,179.4l-3.13-5.91v5.91h-.85v-7.8h.87l3.11,5.76V171.6h.85v7.8Z" transform="translate(-79.23 -35.08)"/><path class="c" d="M334,178.55h3.49v.85h-4.34v-7.8h4.34v.85H334v2.42h2.89v.85H334Z" transform="translate(-79.23 -35.08)"/><rect class="d" x="201.2" y="129" width="70.18" height="23.39"/><path class="e" d="M205.54,176.28v3.12h-.85v-7.8H209v.85h-3.5v3h2.9v.85Z" transform="translate(-79.23 -35.08)"/><path class="e" d="M214.63,177.2h-2.51l-.6,2.2h-.85l2.05-7.8h1.19l2.2,7.8h-.85Zm-.2-.7-1-3.57h-.13l-1,3.57Z" transform="translate(-79.23 -35.08)"/><path class="e" d="M222.17,179.4h-4.34v-.7h1.73v-6.4h-1.47v-.7h3.71v.7h-1.39v6.4h1.7v0A2.39,2.39,0,0,0,222.17,179.4Z" transform="translate(-79.23 -35.08)"/><path class="e" d="M224.36,179.4v-7.8h.85v7.1h3.63v.7Z" transform="translate(-79.23 -35.08)"/><path class="e" d="M234.83,177.31V171.6h.85v5.71a2.16,2.16,0,0,1-2.46,2.24c-1.66,0-2.52-.9-2.52-2.24V171.6h.85v5.71a1.5,1.5,0,0,0,1.67,1.54A1.46,1.46,0,0,0,234.83,177.31Z" transform="translate(-79.23 -35.08)"/><path class="e" d="M241.35,179.4c0-.53-1-2-1.66-3.14l-.55,0h-.9v3.12h-.85v-7.8h2.35a2.27,2.27,0,0,1,2.45,2.38,2,2,0,0,1-1.58,2.12c.67,1.19,1.74,2.74,1.74,3.3Zm-1.71-4c1.15,0,1.74-.49,1.74-1.45a1.44,1.44,0,0,0-1.64-1.53h-1.5v3Z" transform="translate(-79.23 -35.08)"/><path class="e" d="M245,178.55h3.5v.85h-4.35v-7.8h4.35v.85H245v2.42h2.9v.85H245Z" transform="translate(-79.23 -35.08)"/><rect class="f" x="112.27" y="129" width="70.18" height="23.39"/><path class="a" d="M119.42,136.51c0-.53-1-2-1.66-3.14l-.55,0h-.9v3.12h-.85v-7.8h2.35a2.27,2.27,0,0,1,2.45,2.38,2,2,0,0,1-1.58,2.12c.67,1.19,1.74,2.74,1.74,3.3Zm-1.71-4c1.15,0,1.74-.49,1.74-1.45a1.44,1.44,0,0,0-1.64-1.53h-1.5v3Z" transform="translate(-79.23 -35.08)"/><path class="a" d="M123.11,135.66h3.5v.85h-4.35v-7.8h4.35v.85h-3.5V132H126v.85h-2.9Z" transform="translate(-79.23 -35.08)"/><path class="a" d="M131.51,136.62V138h-.9v-1.33c-1.48-.23-2.3-1.64-2.3-4,0-2.61,1-4,2.74-4s2.76,1.52,2.76,4C133.81,135,133,136.38,131.51,136.62Zm1.33-4c0-2.38-.56-3.34-1.79-3.33s-1.74,1-1.74,3.33c0,2,.43,3,1.3,3.2v-1.94h.9v1.94C132.41,135.57,132.84,134.6,132.84,132.6Z" transform="translate(-79.23 -35.08)"/><path class="a" d="M139.3,134.42v-5.71h.85v5.71a2.16,2.16,0,0,1-2.46,2.24c-1.66,0-2.52-.9-2.52-2.24v-5.71H136v5.71a1.5,1.5,0,0,0,1.67,1.54A1.46,1.46,0,0,0,139.3,134.42Z" transform="translate(-79.23 -35.08)"/><path class="a" d="M142.91,135.66h3.5v.85h-4.35v-7.8h4.35v.85h-3.5V132h2.9v.85h-2.9Z" transform="translate(-79.23 -35.08)"/><path class="a" d="M153.33,134.39c0,1.53-1.07,2.27-2.72,2.27a2.61,2.61,0,0,1-2.23-1l.59-.55a2,2,0,0,0,1.74.78c1.1,0,1.79-.4,1.81-1.43S152,133.16,151,133c-1.55-.27-2.58-1.08-2.58-2.32a2.16,2.16,0,0,1,2.36-2.11,2.68,2.68,0,0,1,2.25,1l-.56.53a1.86,1.86,0,0,0-1.58-.77c-1.06,0-1.67.47-1.67,1.29s.62,1.28,1.88,1.53C152.61,132.45,153.33,133,153.33,134.39Z" transform="translate(-79.23 -35.08)"/><path class="a" d="M160,128.71v.7h-2.15v7.1H157v-7.1h-2.08v-.7Z" transform="translate(-79.23 -35.08)"/><rect class="b" x="23.34" y="86.11" width="70.18" height="23.39"/><polygon class="i" points="58.43 81.72 54.46 77.75 54.46 76.63 58.03 80.2 58.03 75.78 58.03 70.46 58.83 70.46 58.83 75.78 58.83 80.2 62.4 76.63 62.4 77.75 58.43 81.72"/><path class="j" d="M120,50.72H115.7V50h1.73v-6.4H116v-.69h3.71v.69h-1.39V50H120v0A2.39,2.39,0,0,0,120,50.72Z" transform="translate(-79.23 -35.08)"/><path class="j" d="M126,50.72l-3.14-5.91v5.91H122V42.93h.87L126,48.68V42.93h.85v7.79Z" transform="translate(-79.23 -35.08)"/><path class="j" d="M133.24,50.72H128.9V50h1.73v-6.4h-1.47v-.69h3.71v.69h-1.39V50h1.7v0A2.39,2.39,0,0,0,133.24,50.72Z" transform="translate(-79.23 -35.08)"/><path class="j" d="M140.2,42.93v.69h-2.15v7.1h-.85v-7.1h-2.08v-.69Z" transform="translate(-79.23 -35.08)"/><path class="j" d="M146.44,50.72H142.1V50h1.73v-6.4h-1.47v-.69h3.71v.69h-1.39V50h1.7v0A2.39,2.39,0,0,0,146.44,50.72Z" transform="translate(-79.23 -35.08)"/><path class="j" d="M152.1,48.52h-2.51l-.6,2.2h-.85l2.05-7.79h1.19l2.2,7.79h-.85Zm-.2-.7-1-3.57h-.13l-1,3.57Z" transform="translate(-79.23 -35.08)"/><path class="j" d="M155.23,50.72V42.93h.85V50h3.63v.7Z" transform="translate(-79.23 -35.08)"/><rect class="k" x="23.34" y="0.32" width="70.18" height="23.39"/><polygon class="g" points="58.43 124.61 54.46 120.64 54.46 119.52 58.03 123.09 58.03 118.68 58.03 113.36 58.83 113.36 58.83 118.68 58.83 123.09 62.4 119.52 62.4 120.64 58.43 124.61"/><polygon class="l" points="147.36 124.61 143.39 120.64 143.39 119.52 146.96 123.09 146.96 118.68 146.96 101.43 147.75 101.43 147.75 118.68 147.75 123.09 151.32 119.52 151.32 120.64 147.36 124.61"/><polygon class="c" points="236.28 124.61 232.32 120.64 232.32 119.52 235.89 123.09 235.89 118.68 235.89 91.53 236.68 91.53 236.68 118.68 236.68 123.09 240.25 119.52 240.25 120.64 236.28 124.61"/><polygon class="j" points="58.43 38.83 54.46 34.86 54.46 33.74 58.03 37.31 58.03 32.89 58.03 27.57 58.83 27.57 58.83 32.89 58.83 37.31 62.4 33.74 62.4 34.86 58.43 38.83"/><line class="m" x1="99.75" y1="101.43" x2="147.36" y2="101.43"/><line class="n" x1="99.75" y1="91.53" x2="236.28" y2="91.53"/><polygon class="j" points="17.49 54.91 13.52 58.88 12.4 58.88 15.97 55.31 11.55 55.31 0.38 55.31 0.38 54.52 11.55 54.52 15.97 54.52 12.4 50.95 13.52 50.95 17.49 54.91"/><line class="o" x1="0.38" y1="54.91" x2="0.38" y2="199.85"/><line class="o" x1="147.36" y1="189.48" x2="147.36" y2="199.85"/><line class="o" x1="236.28" y1="189.48" x2="236.28" y2="199.85"/><line class="o" x1="236.28" y1="199.85" x2="0.38" y2="199.85"/><line class="o" x1="58.43" y1="160.2" x2="58.43" y2="199.85"/></svg>